<svg version="1.0" xmlns="http://www.w3.org/2000/svg"
 width="644.000000pt" height="360.000000pt" viewBox="0 0 644.000000 360.000000"
 preserveAspectRatio="xMidYMid meet">

<g transform="translate(0.000000,360.000000) scale(0.100000,-0.100000)"
fill="#000000" stroke="none">
<path d="M0 3585 c0 -13 24 -15 166 -15 128 0 165 3 162 13 -4 9 -48 13 -166
15 -140 2 -162 0 -162 -13z"/>
<path d="M425 3556 c28 -25 45 -45 40 -46 -6 0 -15 3 -21 8 -5 4 16 -19 47
-50 31 -32 64 -58 73 -58 25 0 19 17 -14 40 -16 12 -30 19 -30 15 0 -3 -9 -1
-20 5 -11 6 -20 16 -20 22 0 7 6 6 18 -3 9 -7 -5 11 -33 40 -27 29 -59 57 -70
62 -11 6 3 -10 30 -35z m116 -113 c13 -16 12 -17 -3 -4 -10 7 -18 15 -18 17 0
8 8 3 21 -13z"/>
<path d="M491 3584 c10 -12 31 -15 111 -12 54 2 98 1 98 -2 0 -3 40 -4 89 -2
62 2 93 8 102 18 10 12 -18 14 -201 14 -191 0 -211 -2 -199 -16z"/>
<path d="M887 3515 c-65 -63 -83 -85 -68 -85 12 0 35 14 53 30 23 21 27 28 13
23 l-20 -6 20 23 c11 12 42 40 68 61 27 22 43 39 35 39 -7 -1 -53 -39 -101
-85z m-17 -38 c0 -2 -10 -12 -22 -23 l-23 -19 19 23 c18 21 26 27 26 19z"/>
<path d="M1050 3585 c-11 -13 27 -15 334 -15 l347 0 -7 -22 c-8 -29 -1 -22 20
20 l17 32 -350 0 c-298 0 -350 -2 -361 -15z"/>
<path d="M2126 3545 c35 -81 32 -113 -18 -175 -57 -70 -78 -102 -78 -120 1 -8
7 0 16 19 8 19 16 32 18 30 6 -5 -28 -168 -48 -234 -9 -27 -29 -66 -46 -85
l-30 -35 -34 38 c-46 52 -70 104 -69 151 0 21 -2 34 -6 28 -3 -6 -15 23 -27
64 -22 79 -22 94 1 42 8 -18 14 -27 15 -20 0 20 -28 71 -73 129 -29 39 -39 62
-39 90 0 29 -2 33 -8 18 -10 -24 -2 -64 16 -85 7 -9 20 -31 28 -50 14 -34 13
-35 -25 -78 -41 -47 -83 -128 -93 -177 -6 -34 -7 -36 39 70 21 50 79 125 95
125 4 0 18 -33 29 -72 46 -154 54 -175 92 -225 43 -58 65 -65 96 -30 35 38 52
82 83 214 40 171 33 160 79 124 46 -37 95 -109 123 -183 11 -29 26 -60 34 -69
8 -9 20 -48 25 -85 6 -38 15 -77 20 -86 6 -12 4 -22 -7 -33 -18 -18 -26 -19
-41 -4 -8 8 -16 8 -30 0 -17 -10 -16 -10 5 -11 26 0 27 -10 7 -100 -19 -87
-19 -183 0 -221 15 -27 35 -32 35 -8 0 6 -4 8 -9 5 -15 -9 -32 49 -29 95 l3
44 392 3 393 2 -9 -23 c-5 -13 -11 -39 -12 -58 -3 -27 -11 -38 -39 -54 -30
-18 -35 -26 -35 -58 -1 -29 2 -35 10 -24 5 7 30 18 54 24 42 11 43 11 38 -13
-6 -34 20 -31 81 10 46 31 55 33 125 32 42 -1 74 1 71 3 -2 2 1 10 8 18 8 10
8 12 -4 8 -9 -4 -18 1 -22 11 -5 12 -2 15 11 10 13 -5 15 -4 7 4 -6 6 -18 8
-28 4 -16 -6 -16 -8 0 -25 22 -24 9 -25 -16 -1 -19 18 -19 18 11 36 26 15 33
16 41 5 8 -11 9 -10 4 3 -4 14 5 23 39 38 48 22 66 19 109 -19 10 -9 20 -15
22 -13 11 6 24 1 19 -8 -3 -5 0 -8 7 -5 7 2 22 -2 32 -10 19 -15 19 -15 1 -28
-31 -24 -8 -38 56 -36 39 2 65 -3 76 -12 33 -27 78 -46 93 -41 13 4 13 3 1
-11 -7 -10 -10 -17 -6 -17 4 0 2 -7 -5 -15 -16 -20 -6 -19 25 1 23 15 25 15
25 0 0 -9 8 -16 18 -16 15 0 15 2 2 11 -12 8 -9 9 10 5 14 -3 19 -3 13 0 -7 3
-13 13 -13 22 0 10 -3 13 -8 7 -4 -6 -20 -11 -37 -12 -16 -1 -25 1 -18 3 8 4
10 16 6 36 -5 28 -4 31 13 24 10 -5 35 -10 56 -13 30 -5 38 -2 48 17 9 17 9
21 0 15 -7 -4 -18 1 -26 13 -7 11 -24 22 -37 26 -19 4 -26 14 -30 43 -3 21 -9
48 -13 61 l-6 22 291 0 291 0 0 -96 c0 -52 -4 -93 -8 -90 -5 3 -9 -1 -9 -9 0
-8 4 -12 9 -9 4 3 8 1 8 -5 0 -27 -93 -44 -103 -18 -3 6 -6 2 -6 -9 -1 -12 -7
-27 -15 -33 -12 -10 -16 -8 -21 11 -9 28 -39 58 -58 58 -7 0 -17 3 -21 7 -10
11 -36 12 -36 2 0 -5 -5 -9 -11 -9 -6 0 -35 -16 -66 -37 -49 -32 -61 -36 -113
-34 -50 2 -62 -2 -85 -24 -32 -29 -44 -33 -24 -8 12 15 12 16 -5 10 -13 -5
-17 -3 -13 7 5 12 2 12 -20 1 -31 -16 -47 -10 -38 13 5 13 2 12 -15 -3 -24
-22 -26 -29 -5 -21 21 8 19 0 -11 -40 -14 -18 -30 -31 -36 -28 -5 3 -2 11 7
18 14 10 9 12 -29 11 -33 0 -50 -6 -61 -20 -14 -17 -16 -17 -11 -2 3 9 1 17
-5 17 -5 0 -9 -10 -8 -22 5 -60 1 -66 -36 -58 -19 4 -37 5 -39 1 -2 -3 -3 -25
-1 -49 3 -38 0 -44 -21 -52 -13 -5 -21 -15 -19 -22 7 -18 -505 -13 -517 5 -6
9 -8 9 -8 0 0 -7 -7 -10 -15 -7 -14 6 -13 8 2 21 17 13 16 13 -4 4 -22 -11
-39 -8 -81 12 -16 8 -25 8 -34 -1 -8 -8 -5 -10 13 -6 13 3 4 -4 -20 -15 -54
-26 -119 -28 -137 -3 -13 16 -14 16 -8 0 4 -11 1 -18 -6 -18 -10 0 -11 16 -6
63 4 34 9 126 13 205 3 78 9 142 13 142 10 0 -1 59 -12 66 -5 3 -20 -3 -32
-15 -12 -12 -26 -21 -32 -21 -5 0 -2 5 6 11 13 9 13 10 0 6 -8 -2 -15 -10 -15
-18 0 -8 -16 -26 -35 -41 -19 -15 -47 -36 -62 -47 -31 -25 -46 -27 -28 -6 9
11 9 15 1 15 -7 0 -9 5 -5 11 3 6 -8 4 -24 -5 -17 -9 -34 -20 -37 -26 -10 -16
7 -12 27 7 10 9 21 13 25 9 4 -4 1 -11 -7 -16 -13 -8 -13 -10 -1 -10 10 0 7
-8 -9 -25 -27 -29 -42 -32 -33 -7 3 9 3 14 -1 10 -4 -3 -8 -12 -10 -20 -3 -20
-16 -38 -29 -38 -8 0 -8 3 1 12 15 15 16 42 1 33 -6 -4 -8 -10 -5 -13 3 -3 1
-11 -5 -19 -6 -7 -8 -13 -4 -13 4 0 2 -7 -5 -15 -7 -8 -17 -12 -23 -8 -6 3 -7
1 -3 -5 4 -7 3 -12 -3 -12 -5 0 -16 -3 -25 -6 -9 -3 -16 -1 -16 6 0 6 5 8 10
5 6 -3 10 -1 10 4 0 14 -27 14 -32 0 -2 -5 -11 -7 -20 -4 -18 7 -32 43 -43
108 -6 37 -6 38 17 25 12 -7 28 -19 34 -27 9 -11 15 -11 30 -2 15 10 15 11 2
7 -10 -3 -20 -1 -23 4 -5 9 15 15 37 11 4 0 5 6 2 13 -4 10 -16 13 -39 9 -30
-5 -39 0 -74 35 -51 52 -77 56 -294 45 -134 -7 -170 -12 -184 -25 -15 -16 -14
-17 10 -14 15 1 30 6 34 9 3 4 53 7 111 7 92 0 103 -2 92 -15 -7 -9 -8 -15 -2
-15 5 0 9 -11 8 -24 -1 -19 -4 -22 -17 -15 -12 6 -21 3 -30 -9 -13 -15 -12
-16 4 -3 15 12 17 10 18 -20 0 -19 2 -45 5 -58 4 -20 2 -22 -11 -11 -8 7 -12
17 -8 24 3 6 3 8 -2 4 -4 -4 -21 0 -37 8 -20 10 -28 11 -23 3 5 -7 9 -24 11
-38 1 -14 5 -40 9 -58 l6 -32 -63 35 c-34 19 -110 52 -168 71 -58 20 -109 40
-114 45 -6 4 -18 8 -28 8 -10 0 -18 3 -18 8 0 4 -10 8 -22 8 -13 1 -37 4 -55
7 -31 6 -31 6 -17 -21 15 -29 10 -81 -10 -95 -7 -6 -6 -7 4 -5 8 3 17 15 20
29 6 22 7 21 21 -16 7 -22 14 -44 14 -50 0 -5 3 -12 6 -15 6 -5 56 -119 66
-152 5 -17 -36 -18 -766 -18 l-771 0 0 -25 0 -25 298 0 c649 -1 1267 -12 1274
-24 4 -6 3 -12 -2 -14 -13 -5 -12 -33 0 -52 8 -11 9 -8 4 13 -9 41 9 32 28
-14 16 -38 16 -40 0 -45 -9 -3 -27 -10 -39 -16 -11 -6 -27 -7 -34 -3 -7 5 -10
4 -6 -2 9 -14 -48 -37 -64 -27 -8 4 -10 3 -5 -4 4 -6 -2 -17 -14 -24 -24 -16
-26 -51 -3 -69 11 -10 14 -10 9 -1 -4 6 -3 12 3 12 5 0 13 -5 16 -10 4 -7 13
-6 27 1 12 6 39 9 61 6 27 -4 36 -2 26 4 -12 7 -11 9 2 9 9 0 22 -6 28 -14 9
-11 6 -18 -16 -33 -55 -38 -125 -75 -130 -69 -4 3 -1 6 5 6 7 0 12 5 12 11 0
8 -5 8 -15 -1 -8 -7 -13 -16 -10 -20 3 -4 -7 -16 -21 -25 -15 -9 -24 -12 -20
-7 3 6 1 12 -6 14 -7 3 -5 7 6 11 11 5 15 3 10 -5 -5 -7 -3 -8 5 -3 9 5 10 10
2 18 -7 7 -15 6 -26 -3 -11 -9 -19 -9 -28 -2 -10 9 -13 6 -13 -13 0 -17 3 -22
10 -15 15 15 25 12 21 -7 -1 -10 -10 -17 -18 -17 -9 1 -15 -1 -14 -5 1 -3 -1
-7 -5 -8 -5 -2 -17 -12 -28 -23 -20 -20 -46 -28 -35 -10 3 6 -1 7 -10 3 -12
-4 -13 -8 -5 -13 9 -6 6 -14 -9 -29 -26 -26 -35 -27 -21 -2 18 35 11 37 -10 3
-22 -36 -26 -62 -9 -62 6 0 9 6 6 13 -3 9 5 13 27 14 17 0 48 11 69 23 22 13
37 17 37 10 0 -6 5 -8 10 -5 6 4 8 11 5 16 -4 5 -2 9 4 9 5 0 12 -4 15 -9 3
-5 14 -11 24 -13 15 -4 19 0 18 21 -1 22 8 31 62 59 35 17 68 29 74 26 7 -4 6
-9 -2 -14 -8 -5 -7 -9 5 -13 9 -4 13 -3 10 3 -3 6 0 10 7 10 10 0 9 3 -2 10
-8 5 -12 10 -10 12 18 13 83 38 88 34 3 -3 -3 -8 -12 -12 -9 -3 -14 -10 -11
-15 3 -4 0 -17 -7 -28 -16 -26 -6 -36 21 -21 12 6 27 8 33 4 6 -4 9 -3 6 2 -3
5 0 15 8 22 8 7 14 8 14 2 0 -5 5 -10 11 -10 6 0 9 6 6 13 -3 8 3 14 14 14 11
1 19 -5 19 -13 0 -8 5 -12 10 -9 15 9 12 45 -5 51 -8 3 -35 -5 -59 -19 -44
-24 -45 -24 -34 -3 37 72 37 81 -2 61 -17 -9 -36 -13 -42 -9 -7 4 -8 3 -4 -4
4 -7 3 -12 -3 -12 -5 0 -70 -30 -143 -66 -225 -111 -231 -109 -33 14 72 44
144 92 160 106 l30 26 -23 20 c-20 17 -33 19 -103 13 -58 -4 -79 -3 -79 6 0
12 104 64 154 77 15 3 30 12 32 19 5 12 -38 136 -74 215 -35 77 -121 295 -118
298 8 7 307 -101 380 -138 43 -22 83 -40 88 -40 6 0 7 23 2 57 l-7 58 37 -29
c21 -15 40 -26 42 -23 3 3 1 22 -5 44 -18 65 -13 69 32 25 24 -23 46 -39 50
-36 4 4 7 23 8 43 1 20 4 47 8 60 6 21 10 16 35 -38 17 -33 35 -61 42 -61 6 0
19 17 27 38 l15 37 7 -37 c4 -20 4 -42 -1 -49 -4 -8 -3 -10 4 -5 7 4 12 1 12
-8 0 -9 7 -16 15 -16 8 0 15 -4 15 -10 0 -5 8 -10 18 -10 10 0 22 -4 28 -10 6
-6 26 4 58 30 26 22 53 37 59 33 5 -3 7 -1 3 5 -10 17 35 44 51 30 10 -8 17
-8 26 1 9 10 8 11 -4 6 -10 -4 -20 -2 -23 3 -8 13 84 83 97 75 5 -3 7 -2 4 4
-5 8 80 83 95 83 5 0 4 -9 -17 -315 -7 -115 -12 -211 -11 -213 2 -1 15 2 30 8
15 5 38 10 51 10 22 0 23 -2 13 -30 -5 -17 -7 -42 -4 -55 4 -14 2 -25 -4 -25
-5 0 -10 -9 -10 -19 0 -22 39 -55 110 -92 25 -13 47 -27 48 -31 2 -5 9 -8 16
-8 7 0 21 -9 32 -21 l19 -21 -30 14 c-17 7 -36 20 -43 28 -9 9 -11 10 -6 1 5
-10 1 -12 -15 -7 -11 3 -30 9 -41 12 -11 3 -18 8 -16 12 2 4 -11 8 -29 9 -19
2 -57 12 -84 23 -61 24 -72 13 -35 -36 l27 -35 -44 17 c-24 9 -50 24 -56 32
-7 9 -13 11 -13 6 0 -6 5 -15 11 -21 7 -7 -2 -21 -32 -47 -23 -20 -46 -36 -51
-36 -5 0 -27 -12 -50 -26 -23 -15 -75 -37 -116 -50 -126 -40 -345 -30 -474 21
-13 5 -18 2 -18 -8 0 -8 -6 -17 -12 -20 -7 -2 2 -4 20 -5 43 -1 74 -12 90 -31
8 -9 11 -10 7 -3 -3 6 -1 12 5 12 11 0 9 -228 -6 -654 l-7 -179 -546 6 c-300
3 -550 6 -556 7 -5 1 -191 2 -412 1 l-403 -1 0 -23 0 -24 430 -7 c236 -4 667
-7 957 -6 l528 0 -3 -64 -4 -64 37 8 c53 12 57 19 45 81 -9 43 -7 74 6 153
l18 99 25 -30 c32 -38 80 -63 121 -63 16 0 30 -3 30 -6 0 -3 -20 -29 -44 -58
-43 -50 -86 -138 -86 -175 0 -10 18 -33 40 -52 22 -19 45 -47 52 -63 11 -27 9
-31 -18 -52 -26 -22 -27 -24 -8 -24 12 0 27 7 34 15 9 11 16 13 24 5 5 -5 14
-10 19 -10 5 0 1 7 -8 16 -9 10 -14 25 -12 35 3 10 -4 26 -14 35 -11 10 -17
24 -15 31 3 7 2 23 -3 35 -6 18 -9 19 -14 5 -4 -10 -2 -17 3 -17 6 0 10 -4 10
-10 0 -16 -13 -12 -45 16 l-29 25 18 52 c10 29 23 58 28 65 8 8 49 12 144 12
l133 0 7 -36 c4 -24 2 -39 -6 -47 -10 -9 -11 -9 -5 2 5 10 4 12 -4 7 -6 -4 -9
-12 -5 -17 8 -13 -26 -38 -43 -32 -7 3 -13 1 -14 -3 0 -5 -1 -33 -2 -62 -2
-60 15 -66 24 -8 4 24 19 50 43 74 20 21 36 48 36 60 0 54 -94 192 -130 192
-12 -1 -11 -3 3 -14 14 -11 15 -15 5 -19 -9 -4 -8 -6 3 -6 9 -1 26 -10 39 -21
l24 -20 -102 1 -102 1 27 33 c16 18 30 32 33 32 3 0 16 5 30 11 21 9 13 11
-51 11 -62 1 -82 5 -109 24 -49 32 -72 78 -77 152 -4 62 -3 65 32 104 62 68
193 94 263 51 41 -25 66 -81 57 -127 -7 -41 -56 -99 -91 -107 -15 -4 -24 -9
-21 -12 12 -12 80 31 103 65 27 40 32 97 10 139 -7 15 -12 35 -11 45 2 9 -1
14 -6 11 -6 -3 -36 4 -67 16 -31 12 -93 36 -137 53 -82 31 -139 76 -129 101 3
7 20 22 38 31 33 18 34 18 90 -8 31 -15 59 -27 61 -27 3 0 43 -18 89 -40 46
-21 101 -46 121 -54 23 -10 34 -20 29 -27 -4 -8 -3 -9 5 -5 21 13 51 -4 51
-30 0 -14 11 -35 26 -49 14 -13 30 -27 35 -32 5 -4 17 -19 27 -32 10 -13 36
-30 57 -38 52 -20 196 -28 224 -13 43 23 329 -57 356 -99 7 -13 -21 -11 -130
6 -147 25 -225 28 -225 10 0 -15 37 -36 103 -57 20 -6 37 -14 37 -17 0 -3 -7
-2 -17 1 -9 4 -42 9 -73 11 -32 3 -84 15 -116 26 -71 25 -124 35 -124 22 0 -5
39 -31 88 -57 95 -52 82 -52 -48 -1 -112 44 -137 50 -155 35 -11 -9 -12 -17
-4 -31 14 -26 4 -24 -47 12 -58 42 -81 104 -63 173 8 34 16 46 28 44 9 -2 19
-7 22 -12 4 -4 9 -3 13 2 3 6 -3 13 -14 17 -11 3 -20 11 -20 16 0 6 -4 7 -10
4 -5 -3 -19 -1 -31 6 -32 17 -87 24 -73 9 10 -10 30 -17 58 -19 15 -2 -2 -97
-24 -141 -25 -49 -21 -62 8 -25 24 30 24 31 52 -65 15 -49 24 -105 25 -162 1
-48 4 -91 8 -95 4 -3 7 8 7 25 l0 32 448 -1 447 0 32 -49 c18 -27 30 -56 27
-64 -6 -16 10 -28 40 -30 17 -1 21 -7 20 -33 0 -27 2 -31 17 -23 11 7 19 6 21
-1 2 -7 9 -5 17 5 12 14 12 16 -4 10 -14 -6 -16 -4 -10 7 6 11 5 12 -6 2 -18
-17 -26 -16 -26 3 0 12 7 14 30 10 16 -3 36 -6 44 -6 11 0 13 -3 5 -12 -15
-19 -76 -53 -67 -38 4 7 -7 2 -26 -11 -19 -13 -38 -30 -42 -37 -7 -11 -12 -11
-25 0 -15 11 -15 11 -6 -2 17 -22 27 -83 12 -74 -7 4 -8 3 -4 -4 7 -12 46 -17
46 -7 0 3 -7 16 -15 29 -14 21 -14 25 5 48 10 14 32 28 47 31 16 3 49 22 73
41 48 38 57 41 79 27 12 -8 11 -17 -7 -58 -18 -41 -19 -54 -9 -90 8 -32 8 -45
-2 -57 -18 -22 -37 -20 -55 5 -14 21 -14 21 -25 1 -16 -31 -42 -35 -73 -12
-15 11 -28 16 -28 10 0 -6 -6 -8 -12 -4 -9 5 -10 4 -3 -4 6 -5 19 -12 30 -14
13 -2 19 -10 17 -23 -2 -15 -1 -17 6 -6 6 8 21 12 40 9 17 -2 29 -1 27 3 -3 4
2 10 11 13 22 9 26 8 18 -5 -14 -23 41 3 64 29 46 54 45 54 26 50 -27 -4 -32
62 -7 88 10 9 17 19 16 21 -15 18 7 19 50 2 57 -22 62 -23 125 -34 23 -4 40
-10 38 -13 -2 -4 62 -8 143 -10 80 -2 155 -6 166 -8 16 -4 17 -3 5 5 -12 8 -6
11 25 11 22 0 73 10 113 22 69 20 76 20 100 5 30 -17 29 -10 47 -349 6 -100 9
-118 23 -118 15 0 17 12 14 91 -2 63 0 89 7 84 6 -3 11 -1 11 5 0 6 -7 13 -15
16 -11 5 -14 28 -14 111 0 58 -3 108 -6 111 -3 4 18 12 47 18 29 7 54 11 56
10 1 -2 -5 -18 -14 -36 -15 -29 -18 -31 -29 -17 -7 10 -16 17 -21 17 -4 0 -3
-5 4 -12 9 -9 8 -16 -5 -30 -14 -16 -26 -58 -16 -58 20 0 124 152 112 164 -3
3 -27 -1 -54 -10 -28 -8 -62 -12 -77 -9 -27 6 -150 87 -203 133 -17 15 -7 3
21 -25 29 -29 49 -55 46 -57 -29 -17 -135 -38 -222 -43 -238 -13 -458 47 -636
173 -74 52 -105 88 -147 168 -30 58 -32 67 -32 171 0 89 4 123 23 180 35 104
105 240 167 323 30 40 55 76 55 81 0 4 -11 18 -25 31 -56 53 -95 283 -61 364
21 51 20 63 -9 98 -31 36 -31 48 -4 55 17 5 20 12 16 37 -7 45 1 56 39 56 27
0 34 4 34 19 0 11 11 33 24 48 21 24 27 26 43 15 37 -25 44 -24 78 14 l34 39
30 -17 c26 -14 31 -15 42 -2 22 27 52 37 106 35 46 -1 60 3 105 34 76 50 147
46 168 -11 11 -27 32 -31 50 -9 20 24 49 18 80 -17 26 -28 35 -32 77 -29 66 3
103 -12 103 -42 0 -22 5 -25 66 -30 75 -7 91 -17 96 -55 2 -20 13 -32 42 -45
38 -18 40 -23 22 -67 -3 -10 6 -22 27 -35 19 -12 33 -30 35 -45 6 -41 22 -48
23 -9 1 18 1 37 0 42 -1 4 282 7 628 7 488 0 631 -3 634 -13 3 -9 7 -9 17 0 9
9 51 10 151 6 l139 -6 0 31 0 32 -197 1 c-206 1 -712 5 -1131 9 -133 2 -245 0
-249 -4 -3 -3 -17 -6 -29 -6 -20 0 -22 3 -14 29 7 26 5 30 -36 49 -37 19 -44
26 -44 52 0 33 -22 50 -68 50 -63 0 -92 11 -92 36 0 14 -8 25 -20 29 -11 4
-18 11 -15 16 3 5 -1 6 -9 3 -23 -9 -20 28 4 59 14 17 19 38 18 68 -1 24 -3
38 -6 31 -6 -18 -22 -4 -22 20 0 15 4 18 17 14 10 -4 14 -4 10 0 -4 4 -1 14 6
23 11 14 10 14 -5 2 -16 -12 -18 -11 -18 10 0 34 11 69 21 69 5 0 9 -7 9 -15
0 -20 16 -19 24 1 9 23 112 16 108 -8 -1 -9 3 -20 9 -24 8 -5 9 6 5 37 -12 76
-27 149 -32 149 -2 0 -25 -32 -51 -72 -47 -70 -48 -71 -54 -42 -4 16 -7 56 -8
89 -1 33 -5 65 -9 71 -6 10 -101 -4 -211 -31 -20 -5 -15 4 30 55 85 96 112
130 107 135 -2 2 -49 9 -104 16 -54 6 -102 14 -107 18 -4 4 42 25 103 46 60
21 110 41 110 44 0 3 -23 21 -51 39 -41 27 -56 32 -82 26 -29 -6 -30 -5 -18
10 8 9 12 18 10 20 -2 1 -21 13 -41 25 -21 12 -38 25 -38 28 0 3 28 3 63 2 34
-2 68 0 75 4 20 13 14 34 -12 41 -14 3 -28 15 -31 27 -9 28 1 35 23 16 22 -20
43 -22 62 -4 12 10 12 9 1 -5 -7 -10 -20 -18 -29 -18 -8 0 -24 8 -35 18 -16
13 -19 14 -15 2 2 -8 17 -21 32 -28 25 -13 30 -12 51 8 l22 21 -3 -27 c-1 -15
3 -35 9 -45 13 -21 32 -27 21 -6 -6 9 -4 9 7 0 17 -17 32 -17 23 0 -6 9 -5 9
7 0 11 -9 60 -12 167 -10 84 1 152 -1 152 -5 0 -4 -86 -8 -191 -10 -206 -3
-209 -2 -204 50 2 23 -9 30 -20 12 -9 -14 29 -94 59 -127 18 -19 27 -40 28
-68 l1 -40 4 37 4 36 45 -19 c24 -11 49 -17 54 -14 6 3 10 2 10 -4 0 -17 91
-10 140 11 25 11 59 30 77 44 17 13 37 24 43 24 6 0 8 5 5 10 -4 6 3 25 14 44
12 18 21 43 21 55 0 11 5 21 11 21 5 0 8 4 4 9 -3 5 -1 12 5 16 5 3 10 16 11
28 0 12 3 16 6 9 3 -7 2 -20 -3 -30 -15 -37 -14 -52 4 -45 40 14 53 58 30 108
-13 29 -25 31 -50 8 -17 -15 -18 -15 -18 1 0 20 -36 93 -57 118 -13 15 -10 17
44 22 32 4 75 9 96 11 20 3 37 3 37 1 0 -2 -21 -17 -47 -33 l-48 -28 333 -3
334 -2 -7 -43 c-13 -84 -25 -116 -46 -122 -18 -6 -20 -12 -14 -48 9 -53 20
-74 58 -115 29 -30 30 -34 18 -55 -8 -12 -22 -47 -31 -77 l-16 -55 -202 -1
c-226 -2 -412 -11 -431 -23 -9 -6 15 -33 78 -92 50 -45 88 -85 86 -87 -4 -4
-100 16 -208 44 -33 9 -60 14 -62 12 -1 -2 -7 -46 -11 -98 l-9 -94 -53 72
c-30 40 -56 72 -58 72 -2 0 -4 -34 -4 -75 l0 -75 55 0 c42 0 55 -3 55 -15 0
-8 7 -15 16 -15 10 0 14 6 10 15 -4 11 2 15 23 15 l29 0 12 -96 c10 -80 9 -98
-2 -105 -10 -7 -10 -9 0 -9 6 0 12 -5 12 -11 0 -13 -26 -40 -32 -34 -3 3 -5
-11 -5 -30 0 -25 6 -36 19 -41 10 -3 18 -12 18 -21 0 -20 24 -11 28 12 2 10 0
15 -6 11 -20 -12 -39 5 -36 31 4 40 18 46 47 19 31 -29 35 -61 10 -75 -28 -15
-10 -22 21 -8 25 11 27 16 22 52 -5 35 -4 37 7 19 15 -26 37 -20 38 9 0 21 1
21 9 2 6 -13 9 -15 9 -5 1 19 -13 42 -25 41 -5 -1 -9 7 -10 18 -1 11 4 18 10
15 6 -2 22 5 36 16 15 12 18 18 8 14 -22 -8 -23 9 -3 30 17 16 19 26 7 26 -5
0 -13 -9 -18 -19 -9 -20 -9 -20 -33 0 -13 10 -18 19 -12 19 7 0 9 5 5 12 -5 7
-3 8 7 3 11 -7 12 -6 3 6 -7 8 -14 33 -16 57 l-4 42 292 0 292 0 -16 -44 c-16
-44 -48 -66 -72 -51 -6 4 -7 -1 -3 -11 4 -10 2 -15 -4 -11 -14 9 -13 -25 2
-43 17 -20 29 -74 15 -65 -5 3 -10 1 -10 -4 0 -14 1 -14 39 5 18 9 43 17 56
18 13 0 21 4 19 8 -3 4 7 10 21 13 14 3 35 7 48 10 12 2 43 -2 68 -9 l46 -14
-3 25 c-1 14 -9 33 -18 41 -13 13 -13 18 0 44 l15 29 97 -2 c71 -1 102 -5 115
-17 21 -19 22 -45 2 -62 -18 -15 -20 0 -2 20 6 8 2 6 -11 -5 -13 -11 -19 -21
-13 -23 6 -2 11 -10 11 -17 0 -19 23 -25 64 -15 20 4 51 4 69 0 62 -16 132
-43 143 -55 7 -10 10 -5 11 20 1 42 12 63 24 44 5 -8 7 -1 7 19 -1 27 -7 34
-40 49 -35 16 -43 28 -39 62 2 7 -2 10 -7 7 -8 -5 -22 14 -22 30 0 2 45 4 100
4 l100 0 0 169 0 170 -27 3 c-27 3 -27 3 -28 90 -1 49 -5 91 -8 95 -12 12 -28
-13 -38 -58 -6 -24 -14 -61 -20 -82 l-10 -38 -31 27 c-18 14 -42 50 -54 80
-12 30 -33 69 -47 88 -24 31 -25 35 -12 72 22 62 19 143 -9 197 l-23 47 153 0
154 0 0 45 0 45 -795 0 c-541 0 -795 -3 -795 -10 0 -7 -6 -7 -19 0 -11 5 -62
10 -113 10 -79 0 -97 -4 -118 -21 l-25 -21 29 7 c26 5 27 4 13 -10 -18 -17
-37 -20 -37 -5 0 6 -8 10 -19 10 -14 0 -18 -6 -16 -25 2 -14 -1 -23 -6 -19 -5
3 -6 11 -3 17 5 9 4 9 -5 1 -18 -16 -2 -46 20 -39 12 4 27 -2 44 -19 14 -14
25 -21 25 -15 0 6 4 8 9 5 4 -3 7 -26 5 -50 -3 -31 1 -49 12 -60 8 -9 11 -16
6 -16 -5 0 -8 -11 -7 -25 2 -14 0 -25 -5 -25 -5 0 -17 -3 -27 -6 -13 -5 -12
-2 5 10 31 24 28 42 -4 22 -14 -10 -33 -16 -42 -14 -12 3 -6 9 21 22 20 10 37
25 37 33 0 11 -6 10 -26 -6 -36 -28 -52 -26 -72 9 -18 31 -39 42 -28 14 9 -23
-33 -7 -62 24 -16 17 -27 21 -34 14 -7 -7 -4 -14 11 -21 12 -7 21 -17 21 -23
0 -6 -9 -3 -20 7 -22 20 -28 8 -7 -15 10 -12 9 -12 -6 0 -10 7 -16 19 -13 25
2 7 -1 18 -7 25 -7 7 -7 10 -1 7 6 -3 19 4 30 16 l19 22 3 -21 c4 -28 43 -64
49 -46 3 6 11 12 19 12 9 0 14 11 13 33 0 17 -3 27 -5 20 -3 -7 -12 -9 -21 -6
-12 5 -14 3 -8 -8 8 -12 6 -12 -8 0 -20 16 -14 31 12 26 31 -6 45 9 31 35
l-12 23 -14 -24 c-7 -13 -13 -19 -14 -12 0 6 13 26 30 44 16 18 27 35 24 38
-5 6 -31 -22 -65 -70 l-15 -22 -97 62 -97 61 -540 -1 c-522 -1 -541 -1 -550
-20 -13 -23 -30 -25 -30 -3 0 12 -4 14 -12 7 -19 -15 -78 -12 -78 4 0 22 -30
15 -54 -14 l-23 -26 -7 26 c-8 34 -31 35 -52 2 -12 -19 -20 -23 -29 -15 -9 8
-15 7 -18 -2 -6 -13 -13 -7 -37 32 -13 22 -42 1 -52 -38 -10 -37 -28 -41 -46
-12 -10 17 -15 18 -33 8 -18 -12 -24 -9 -51 21 -23 25 -32 30 -38 20 -7 -10
-11 -10 -25 1 -14 11 -18 10 -31 -9 -13 -17 -19 -20 -30 -10 -11 9 -18 6 -33
-12 -17 -20 -23 -22 -39 -12 -17 10 -21 9 -26 -3 -8 -20 -26 -8 -26 17 0 10
-5 19 -11 19 -6 0 -8 -7 -5 -16 13 -34 -7 -34 -30 0 -27 40 -60 50 -51 15 4
-16 3 -18 -8 -9 -11 9 -12 7 -8 -12 6 -23 6 -23 -15 -4 -21 18 -22 18 -22 1 0
-15 -3 -14 -18 6 l-19 22 -7 -26 c-9 -36 -24 -34 -40 4 -12 29 -14 30 -25 13
-10 -18 -11 -18 -17 4 -3 12 -10 22 -15 22 -4 0 3 -25 17 -55z m2690 36 c-3
-5 1 -11 8 -14 16 -6 18 -47 3 -47 -5 0 -6 10 -3 23 4 15 2 13 -6 -5 -7 -16
-16 -28 -21 -28 -4 0 -5 5 -1 12 4 6 8 23 10 37 2 31 2 31 10 31 3 0 3 -4 0
-9z m74 -68 c0 -7 5 -13 10 -13 16 0 31 -49 21 -67 -7 -12 -8 -10 -8 10 0 43
-26 62 -63 46 -3 -1 -16 -2 -30 -3 -19 -1 -27 -9 -36 -36 -14 -42 -5 -71 25
-86 15 -8 19 -14 11 -19 -11 -7 -50 30 -50 49 -1 6 -8 0 -16 -14 -8 -14 -13
-18 -10 -10 3 8 10 33 17 54 10 31 11 40 1 44 -7 2 -12 8 -12 14 0 6 6 6 15
-2 18 -15 19 -7 4 23 -9 19 -8 20 3 6 12 -15 18 -15 46 -3 22 9 32 20 32 35 0
21 1 22 20 4 11 -10 20 -24 20 -32z m-288 -5 c-12 -12 -35 -1 -27 12 3 5 13 6
21 3 10 -4 12 -9 6 -15z m136 -13 c-3 -3 -9 2 -12 12 -6 14 -5 15 5 6 7 -7 10
-15 7 -18z m1272 19 c0 -24 -35 -122 -49 -135 -23 -24 -65 -31 -86 -15 -18 13
-17 16 24 65 57 68 111 110 111 85z m-1370 -21 c0 -15 -2 -16 -10 -3 -8 12
-10 12 -10 1 0 -8 -3 -12 -6 -8 -8 7 4 27 17 27 5 0 9 -8 9 -17z m1133 -42
c32 -33 57 -66 55 -73 -7 -19 -73 -22 -91 -4 -13 13 -47 108 -47 130 0 19 30
-1 83 -53z m-882 15 c9 -11 -1 -46 -13 -46 -5 0 -4 8 1 19 8 14 7 20 -2 24
-10 4 -13 -8 -13 -48 1 -32 -3 -51 -9 -49 -10 4 -9 72 0 102 5 13 26 12 36 -2z
m-71 -16 c0 -11 -4 -20 -10 -20 -5 0 -10 9 -10 20 0 11 5 20 10 20 6 0 10 -9
10 -20z m-60 -10 c0 -5 -4 -10 -10 -10 -5 0 -10 5 -10 10 0 6 5 10 10 10 6 0
10 -4 10 -10z m-400 -26 c0 -3 -4 -13 -10 -23 -8 -17 -19 -18 -70 -12 -8 2 3
11 25 21 43 20 55 23 55 14z m646 -39 l1 -40 -4 38 c-3 28 -8 37 -19 33 -8 -3
-14 -1 -14 5 0 6 8 9 18 7 12 -2 17 -14 18 -43z m-626 15 c0 -5 -5 -10 -11
-10 -5 0 -7 5 -4 10 3 6 8 10 11 10 2 0 4 -4 4 -10z m320 -40 c0 -5 -4 -10
-10 -10 -5 0 -10 5 -10 10 0 6 5 10 10 10 6 0 10 -4 10 -10z m-1332 -12 c31
-31 -2 -97 -39 -78 -21 12 -25 41 -9 71 12 22 30 25 48 7z m242 -9 c23 -42
-13 -95 -46 -68 -17 14 -18 61 -2 77 18 18 36 15 48 -9z m1312 9 c-7 -7 -12
-21 -12 -32 -1 -20 -1 -20 -12 -2 -9 15 -7 22 8 33 22 16 32 17 16 1z m-212
-23 c0 -8 -4 -15 -10 -15 -5 0 -7 7 -4 15 4 8 8 15 10 15 2 0 4 -7 4 -15z
m225 -7 c-3 -13 -11 -36 -17 -51 l-11 -29 -13 24 c-7 12 -13 17 -14 9 0 -8 -3
-12 -6 -8 -3 3 -1 14 5 24 6 10 11 12 11 6 0 -24 21 -13 31 17 13 35 23 41 14
8z m-263 -20 c-7 -7 -12 -8 -12 -2 0 6 3 14 7 17 3 4 9 5 12 2 2 -3 -1 -11 -7
-17z m-1102 -58 c99 -50 73 -138 -47 -166 -110 -25 -233 20 -233 87 0 9 41 10
168 6 101 -3 143 -2 107 3 -33 4 -108 8 -167 9 l-108 1 11 24 c10 22 55 48
104 60 37 9 126 -4 165 -24z m1298 -4 c3 -3 -1 -13 -9 -23 -12 -14 -12 -15 0
-9 9 6 12 5 9 -5 -3 -8 -12 -13 -21 -13 -9 1 -14 -2 -12 -7 3 -4 -5 -13 -17
-20 -20 -10 -21 -10 -11 2 19 23 19 25 3 45 -14 18 -14 18 3 5 15 -12 17 -11
17 3 0 14 -18 16 -140 16 -127 0 -140 -2 -139 -17 0 -11 3 -13 6 -5 2 6 9 12
14 12 6 0 7 -5 3 -11 -5 -8 -1 -8 14 0 30 16 39 14 16 -4 -22 -17 -12 -20 19
-4 21 10 22 10 2 -6 -13 -10 -30 -14 -50 -10 l-30 6 28 -16 c41 -23 33 -28
-10 -6 -33 17 -73 53 -73 65 0 3 7 6 17 8 26 5 355 -1 361 -6z m-126 -43 c-13
-3 -19 -9 -16 -15 4 -7 2 -8 -5 -4 -17 11 -3 26 22 25 22 -2 22 -2 -1 -6z
m-47 -43 c4 -6 16 -8 28 -5 58 17 62 17 51 6 -14 -15 -114 -27 -114 -14 0 22
24 30 35 13z m-1384 -56 c14 -14 53 -34 85 -44 58 -18 59 -19 56 -52 -7 -72
-56 -103 -136 -86 -45 10 -46 10 -66 75 -24 80 -25 75 1 107 25 32 27 32 60 0z
m358 -16 c13 -23 13 -33 -3 -86 -19 -61 -28 -70 -91 -86 -11 -3 5 -3 36 0 54
5 57 4 87 -31 18 -20 32 -46 32 -58 0 -36 -37 -85 -87 -117 -47 -30 -47 -30
-182 -27 -153 3 -185 13 -246 75 -52 54 -49 104 11 155 19 16 24 16 57 2 20
-8 55 -15 78 -15 34 0 47 6 74 34 l32 35 11 -24 c11 -24 56 -44 69 -31 4 3 -3
6 -14 6 -30 0 -55 34 -60 84 l-5 44 40 7 c22 3 60 19 84 35 50 33 58 33 77 -2z
m830 -359 c-11 -63 -23 -121 -26 -129 -2 -8 -7 -48 -9 -89 -5 -66 -3 -76 17
-97 18 -19 20 -27 10 -37 -10 -9 -11 -8 -5 7 6 16 4 17 -14 7 -11 -6 -24 -16
-27 -21 -3 -6 -11 -10 -16 -10 -6 0 -7 5 -4 10 3 6 0 10 -7 10 -8 0 -19 5 -25
11 -9 9 -6 17 13 31 22 18 24 26 24 110 0 50 3 88 7 85 4 -4 6 -35 5 -69 -2
-77 8 -70 13 9 2 32 7 69 11 82 5 16 4 22 -4 17 -6 -3 -14 -1 -18 5 -4 6 1 16
10 21 19 11 22 29 4 26 -15 -3 -24 70 -11 83 5 5 7 -11 6 -34 -2 -32 -1 -37 6
-22 9 19 10 19 10 -2 1 -13 6 -23 12 -23 11 0 9 36 -5 75 -7 19 -7 19 7 2 14
-16 15 -16 19 12 4 25 2 28 -9 20 -9 -8 -13 -8 -13 -1 0 10 32 34 37 28 1 -1
-7 -54 -18 -117z m36 -1 c-9 -62 -21 -122 -25 -133 l-9 -20 0 20 c0 11 5 49
13 85 8 36 17 89 21 118 4 29 10 51 13 48 3 -3 -3 -56 -13 -118z m395 57 c2
-30 2 -30 11 -5 7 21 8 20 4 -9 -3 -18 -5 -41 -6 -50 -1 -19 -28 97 -28 119 1
26 17 -23 19 -55z m47 41 c1 -1 4 -30 7 -66 4 -43 3 -57 -3 -40 -5 14 -9 41
-10 61 -1 27 -7 39 -23 48 -23 11 -23 11 2 5 14 -4 26 -7 27 -8z m43 -88 c0
-46 3 -108 6 -138 4 -30 4 -52 0 -49 -10 9 -23 269 -14 269 5 0 8 -37 8 -82z
m-50 -23 c0 -7 -5 -15 -11 -17 -8 -3 -8 -16 2 -46 9 -32 9 -47 0 -64 -10 -21
-11 -19 -7 15 3 20 1 37 -3 37 -11 0 -12 58 -1 65 5 3 6 13 3 22 -4 11 -3 14
5 9 7 -4 12 -13 12 -21z m18 -162 c-3 -70 -3 -122 0 -115 2 7 8 10 13 6 5 -3
2 -12 -6 -21 -9 -8 -19 -13 -22 -9 -9 8 -9 75 0 69 4 -2 6 15 6 39 l-2 43 -8
-35 c-7 -33 -7 -33 -2 5 3 22 6 64 7 93 0 28 5 52 9 52 5 0 7 -57 5 -127z
m-460 -52 c16 -24 16 -25 -1 -18 -13 5 -20 0 -27 -16 -9 -22 -9 -22 -9 -1 -1
12 6 25 15 28 8 3 12 11 8 17 -4 8 -9 7 -15 -2 -5 -9 -7 -3 -5 16 6 47 8 52
13 26 3 -14 12 -36 21 -50z m-2393 38 c53 -14 83 -42 66 -63 -6 -8 -20 -31
-30 -52 l-19 -38 -26 52 c-14 29 -22 52 -16 52 5 0 10 4 10 10 0 5 -7 6 -17 3
-11 -5 -14 -3 -8 6 4 7 18 11 31 8 13 -2 21 0 17 5 -3 6 -19 7 -35 4 -20 -4
-27 -2 -22 5 4 7 1 10 -7 7 -9 -3 -15 -23 -17 -54 -1 -27 -5 -56 -9 -64 -3 -8
-5 -19 -4 -25 1 -5 -7 -1 -18 9 -17 15 -21 31 -21 76 0 31 3 60 7 63 10 10 69
8 118 -4z m2935 -51 c0 -4 -7 -8 -15 -8 -7 0 -18 -7 -23 -17 -8 -13 -9 -11 -9
12 0 15 2 22 6 17 4 -7 12 -8 21 -1 12 7 11 10 -7 15 -13 4 -23 13 -23 20 0
10 8 7 25 -8 14 -12 25 -25 25 -30z m-540 -47 c0 -12 -20 -25 -27 -18 -7 7 6
27 18 27 5 0 9 -4 9 -9z m488 -35 c-7 -8 -15 -12 -17 -11 -5 6 10 25 20 25 5
0 4 -6 -3 -14z m-2036 -320 c150 -79 229 -125 240 -140 23 -33 -10 -107 -83
-189 -68 -76 -97 -78 -172 -9 -28 26 -56 52 -62 58 -5 6 -39 35 -73 65 -60 51
-92 92 -92 121 0 9 3 9 12 0 19 -19 42 -14 70 16 39 41 58 84 47 105 -17 30
24 20 113 -27z m488 -36 c0 -5 5 -10 11 -10 5 0 7 5 4 10 -4 6 5 10 24 8 36
-3 37 -11 15 -83 -8 -27 -14 -70 -12 -94 3 -51 -5 -56 -59 -42 -62 17 -77 32
-69 73 5 30 12 37 45 47 39 11 100 75 86 89 -3 4 -11 -2 -17 -13 -15 -26 -59
-66 -67 -60 -4 2 -19 -2 -34 -10 -25 -13 -40 -4 -17 10 6 3 10 11 10 16 0 6
-4 8 -9 5 -5 -4 -11 0 -14 6 -3 7 -3 -6 -2 -29 2 -24 0 -45 -5 -48 -5 -3 -6
-13 -3 -23 6 -15 4 -15 -16 2 -16 15 -19 22 -9 29 9 6 8 7 -5 3 -23 -7 -57 10
-57 29 0 7 -5 17 -12 21 -7 4 -8 3 -4 -4 4 -6 -6 -5 -21 3 -15 8 -34 15 -41
15 -8 0 -28 10 -45 22 -17 12 -38 23 -45 24 -8 2 -16 5 -19 7 -3 3 83 6 191 7
129 0 196 -3 196 -10z m-72 -213 c68 -49 128 -100 134 -112 17 -38 1 -89 -52
-162 -50 -68 -96 -103 -136 -103 -11 0 -57 25 -100 56 -88 63 -214 156 -214
158 0 1 14 2 31 2 37 2 74 35 136 122 28 39 47 77 50 102 4 26 10 37 17 33 6
-4 66 -47 134 -96z m-613 51 c38 -40 39 -40 8 -19 -18 12 -33 27 -33 32 0 6
-4 7 -10 4 -5 -3 -10 1 -10 9 0 22 1 21 45 -26z m725 -79 c0 -17 -18 -18 -34
0 -16 17 -15 18 9 14 14 -3 25 -9 25 -14z m-813 -1 c15 -6 31 -11 36 -10 4 1
7 -1 7 -5 0 -5 12 -9 27 -10 15 0 29 -6 31 -12 2 -5 10 -7 19 -4 12 5 14 3 8
-7 -6 -10 -4 -12 9 -7 26 10 90 -19 82 -38 -3 -8 -1 -15 4 -15 9 0 14 15 11
33 -1 4 8 3 19 -3 11 -6 20 -12 20 -15 0 -2 3 -11 7 -21 4 -10 2 -15 -4 -11
-5 3 -10 0 -10 -8 0 -8 4 -12 9 -9 4 3 8 -1 8 -10 0 -8 -5 -16 -12 -18 -8 -3
-6 -7 5 -11 9 -3 16 -3 14 1 -2 7 6 12 24 12 5 0 7 -5 3 -12 -5 -7 -3 -8 6 -3
9 5 4 14 -16 31 -16 13 -24 23 -17 24 6 0 15 -5 18 -11 4 -6 25 -23 47 -40 47
-33 69 -69 57 -91 -11 -20 22 -20 37 0 9 13 15 12 42 -8 17 -13 29 -27 26 -31
-3 -5 1 -6 9 -3 9 3 22 -4 31 -18 9 -12 16 -19 16 -15 0 4 12 0 26 -9 14 -10
44 -18 67 -19 23 -1 51 -5 62 -9 14 -5 13 -3 -4 7 l-23 14 30 22 31 21 26 -22
26 -23 -27 -50 c-15 -28 -30 -52 -33 -55 -7 -5 -20 -40 -57 -142 -26 -72 -54
-210 -54 -271 0 -21 9 -62 19 -92 l19 -55 -429 0 c-375 0 -429 2 -429 15 0 8
5 15 11 15 5 0 7 5 4 10 -4 6 -11 8 -16 5 -5 -4 -10 6 -11 22 -2 42 -3 47 -11
61 -14 21 4 13 42 -20 20 -17 35 -40 35 -50 -1 -10 3 -15 7 -12 5 3 6 10 3 16
-4 6 -1 8 7 6 8 -3 13 -9 12 -14 -1 -5 9 -10 21 -10 17 -1 22 4 21 18 -1 11
-9 24 -18 30 -21 11 -42 48 -27 48 5 0 10 -6 10 -14 0 -20 17 -29 26 -15 4 8
3 9 -4 5 -7 -4 -12 -2 -12 3 0 17 37 13 83 -8 24 -11 55 -23 70 -26 15 -4 27
-10 27 -14 0 -12 93 -7 97 5 2 6 -12 19 -31 29 -20 11 -34 20 -33 21 1 1 49
-6 107 -16 73 -12 111 -15 124 -8 17 9 15 12 -15 30 -34 21 -75 39 -97 44 -27
5 -24 13 4 10 16 -2 37 -4 47 -5 10 0 16 -5 13 -10 -3 -5 1 -12 10 -15 11 -4
15 -2 11 7 -4 10 15 9 91 -4 64 -11 103 -14 114 -8 43 23 8 57 -102 103 -36
15 -53 25 -38 23 16 -2 25 0 22 5 -4 6 -22 7 -41 3 -27 -5 -38 -2 -50 12 -8
10 -12 12 -8 5 5 -10 -1 -12 -22 -8 -15 2 -37 5 -48 6 -13 0 -6 6 20 16 22 9
45 16 52 16 7 1 10 5 7 9 -2 4 3 15 12 23 13 14 14 19 3 32 -10 12 -24 14 -62
9 -35 -5 -48 -4 -43 4 4 6 3 11 -3 11 -5 0 -14 -6 -18 -14 -4 -7 -28 -16 -53
-19 l-45 -6 39 14 c21 8 44 20 51 25 7 6 35 17 64 26 40 12 56 12 73 3 13 -6
20 -8 16 -4 -9 9 9 35 24 35 6 0 6 -6 -1 -14 -13 -16 2 -32 19 -21 16 10 -9
48 -27 41 -13 -6 -14 -4 -3 9 7 9 18 14 24 12 7 -3 12 12 13 36 2 29 -3 46
-16 58 -24 22 -37 12 -15 -12 36 -40 -17 -98 -114 -123 -49 -13 -50 -13 -61
10 -6 15 -19 24 -33 24 -21 0 -21 -1 -3 -14 24 -17 32 -61 10 -52 -9 3 -14 2
-11 -3 7 -11 -18 -21 -55 -21 -42 0 -27 -25 26 -46 54 -20 62 -39 28 -61 -20
-13 -46 -18 -94 -17 -78 1 -138 25 -186 76 -17 18 -41 42 -53 53 -23 21 -21
58 5 84 13 13 18 12 40 -9 14 -13 25 -33 25 -44 0 -26 15 -9 24 26 7 30 -14
50 -70 68 -16 5 -58 20 -94 33 -281 108 -290 112 -290 155 0 18 4 23 16 18 8
-3 13 -2 10 3 -3 5 7 14 22 20 31 13 46 8 257 -89 22 -10 58 -26 80 -34 22 -9
61 -27 87 -39 47 -23 47 -23 32 -46 -16 -22 -16 -23 5 -12 12 7 27 9 33 5 7
-4 8 -3 4 4 -5 8 4 12 29 12 28 0 38 -5 44 -22 8 -20 10 -21 16 -5 4 9 4 25
-1 35 -11 26 -6 82 11 108 23 35 73 58 91 43 17 -14 29 -6 21 16 -13 33 -90 7
-126 -44 -13 -18 -21 -45 -21 -69 0 -39 -1 -40 -32 -38 -59 5 -270 104 -263
124 2 6 1 12 -3 12 -5 0 -14 -6 -21 -12 -10 -11 -15 -9 -25 5 -9 11 -20 15
-31 10 -13 -4 -16 -3 -11 6 4 6 4 11 -1 10 -28 -5 -42 2 -36 19 6 14 4 15 -9
4 -13 -10 -20 -7 -47 20 l-31 32 37 11 c36 11 99 40 172 81 18 11 48 34 66 52
l33 33 48 -25 47 -25 14 26 c17 33 17 42 -1 17 -14 -18 -15 -18 -25 9 -17 43
-17 43 26 25z m902 -244 c-15 -14 -19 -14 -48 4 -32 19 -32 32 1 32 10 0 18 4
18 10 0 5 -6 8 -12 6 -7 -1 -10 -1 -5 1 4 3 4 10 1 16 -4 7 8 -3 27 -20 30
-30 32 -34 18 -49z m-1589 9 c0 -8 -5 -11 -12 -7 -9 5 -10 4 -3 -4 6 -7 8 -53
3 -124 -3 -62 -9 -171 -13 -243 -4 -71 -10 -134 -13 -139 -3 -5 0 -6 5 -3 9 6
23 -47 24 -88 1 -28 -37 -185 -45 -185 -5 0 -6 35 -3 78 4 42 10 165 13 272 4
107 8 213 9 235 2 22 3 84 4 137 1 82 3 96 16 92 8 -4 15 -13 15 -21z m266 6
c19 -21 19 -21 -8 -9 -23 11 -32 10 -59 -6 -44 -26 -55 -47 -43 -81 11 -32 58
-59 159 -93 77 -25 89 -33 100 -69 7 -23 7 -23 -21 -7 -30 16 -155 73 -279
126 -36 15 -56 20 -51 12 3 -5 -8 -16 -25 -26 -29 -17 -29 -17 -29 6 0 13 3
53 6 90 l7 67 101 4 c56 1 106 4 112 5 6 1 19 -7 30 -19z m-841 0 c10 -15 -1
-23 -20 -15 -9 3 -13 10 -10 16 8 13 22 13 30 -1z m1704 -35 c-15 -18 -23 -18
-16 0 3 7 0 19 -6 26 -10 10 -7 10 11 1 19 -10 21 -15 11 -27z m401 1 c36 -18
36 -19 9 -56 l-21 -29 -29 21 c-33 23 -36 35 -12 61 19 22 17 22 53 3z m-1411
-269 c103 -37 115 -45 67 -46 -51 0 -117 -32 -156 -76 l-30 -35 0 112 0 112
23 -20 c12 -12 55 -33 96 -47z m344 30 c-4 -6 1 -5 10 2 9 8 25 11 37 7 16 -5
18 -10 9 -26 -7 -15 -16 -18 -32 -13 -28 8 -33 13 -42 44 -7 22 -6 23 8 11 9
-7 14 -18 10 -25z m592 -56 c-3 -5 -11 -10 -16 -10 -6 0 -7 5 -4 10 3 6 11 10
16 10 6 0 7 -4 4 -10z m-47 -98 c-2 -10 -21 -23 -46 -32 -40 -14 -45 -13 -56
1 -6 9 -20 19 -31 22 -18 4 -18 5 2 6 12 0 24 4 27 9 2 4 28 8 56 9 44 3 51 0
48 -15z m-203 -240 c-3 -3 -11 0 -18 7 -9 10 -8 11 6 5 10 -3 15 -9 12 -12z
m-848 -222 c-3 -26 -2 -38 5 -34 6 4 9 1 6 -6 -2 -8 -10 -16 -16 -18 -8 -2
-12 12 -12 47 0 31 4 51 11 51 8 0 10 -14 6 -40z m1612 -78 c28 -20 38 -32 28
-32 -38 0 -86 30 -114 72 -48 70 -48 75 -2 32 24 -22 64 -55 88 -72z m-89 -7
c11 -13 10 -14 -4 -9 -9 3 -16 10 -16 15 0 13 6 11 20 -6z m1130 -208 c0 -2
-10 -12 -22 -23 l-23 -19 19 23 c18 21 26 27 26 19z"/>
<path d="M4864 3525 c3 -21 16 -31 16 -12 0 9 -4 18 -9 21 -5 4 -8 -1 -7 -9z"/>
<path d="M4835 3500 c-3 -5 -1 -10 4 -10 6 0 11 5 11 10 0 6 -2 10 -4 10 -3 0
-8 -4 -11 -10z"/>
<path d="M5910 3400 c0 -18 4 -29 10 -25 6 3 10 15 10 25 0 10 -4 22 -10 25
-6 4 -10 -7 -10 -25z"/>
<path d="M5760 3405 c0 -14 5 -25 10 -25 6 0 10 11 10 25 0 14 -4 25 -10 25
-5 0 -10 -11 -10 -25z"/>
<path d="M4441 2432 c0 -12 -7 -25 -15 -28 -8 -3 -17 -12 -20 -21 -4 -11 -2
-13 9 -9 8 3 15 1 15 -4 0 -6 5 -10 10 -10 6 0 10 10 10 23 0 18 2 19 10 7 5
-8 10 -10 10 -4 0 5 -4 14 -9 20 -5 5 -11 18 -14 29 -4 18 -5 18 -6 -3z"/>
<path d="M2141 2464 c0 -11 3 -14 6 -6 3 7 2 16 -1 19 -3 4 -6 -2 -5 -13z"/>
<path d="M2165 2460 c3 -5 8 -10 11 -10 2 0 4 5 4 10 0 6 -5 10 -11 10 -5 0
-7 -4 -4 -10z"/>
<path d="M2022 2433 c-2 -34 12 -51 24 -32 4 7 3 9 -4 5 -7 -4 -12 6 -15 26
l-4 33 -1 -32z"/>
<path d="M3218 2023 c12 -2 30 -2 40 0 9 3 -1 5 -23 4 -22 0 -30 -2 -17 -4z"/>
<path d="M3408 2023 c6 -2 18 -2 25 0 6 3 1 5 -13 5 -14 0 -19 -2 -12 -5z"/>
<path d="M3447 2016 c-3 -8 1 -20 9 -26 10 -9 14 -9 14 -1 0 6 -4 11 -10 11
-5 0 -7 7 -4 15 4 8 4 15 1 15 -3 0 -7 -6 -10 -14z"/>
<path d="M3210 1990 c0 -5 5 -10 11 -10 5 0 7 5 4 10 -3 6 -8 10 -11 10 -2 0
-4 -4 -4 -10z"/>
<path d="M3240 1982 c0 -12 3 -12 15 -2 8 7 15 13 15 15 0 1 -7 2 -15 2 -8 0
-15 -7 -15 -15z"/>
<path d="M3426 1985 c4 -8 11 -15 16 -15 6 0 5 6 -2 15 -7 8 -14 15 -16 15 -2
0 -1 -7 2 -15z"/>
<path d="M2704 1729 c-3 -6 -2 -15 3 -20 5 -5 9 -1 9 11 0 23 -2 24 -12 9z"/>
<path d="M2549 1713 c-13 -16 -12 -17 4 -4 16 13 21 21 13 21 -2 0 -10 -8 -17
-17z"/>
<path d="M2595 1705 c-25 -12 -26 -14 -5 -9 28 7 60 23 45 23 -5 0 -23 -6 -40
-14z"/>
<path d="M2878 1708 c5 -5 16 -8 23 -6 8 3 3 7 -10 11 -17 4 -21 3 -13 -5z"/>
<path d="M2440 1640 c-13 -8 -13 -10 -1 -10 11 0 9 -4 -5 -15 -10 -8 -13 -15
-7 -15 17 0 53 32 47 42 -7 10 -15 10 -34 -2z"/>
<path d="M2391 1611 c-8 -5 -9 -11 -3 -15 5 -3 12 1 16 9 6 17 6 18 -13 6z"/>
<path d="M3064 1581 c3 -5 -2 -12 -12 -16 -16 -6 -16 -7 1 -19 18 -14 11 -26
-23 -39 -8 -3 0 -4 18 -3 17 2 35 6 40 11 4 5 1 5 -5 1 -7 -4 -13 -2 -13 3 0
6 6 11 13 11 9 0 9 2 -1 9 -17 10 -17 21 -2 31 8 5 7 9 -5 13 -9 4 -14 3 -11
-2z"/>
<path d="M2338 1553 c7 -3 16 -2 19 1 4 3 -2 6 -13 5 -11 0 -14 -3 -6 -6z"/>
<path d="M3160 1501 c0 -5 7 -11 15 -15 8 -3 15 -1 15 3 0 5 -7 11 -15 15 -8
3 -15 1 -15 -3z"/>
<path d="M2958 1488 c8 -9 11 -22 7 -28 -4 -7 2 -7 20 0 32 12 65 -2 65 -29 0
-18 -38 -60 -55 -60 -5 0 -11 -7 -13 -15 -4 -19 14 -21 21 -3 4 10 6 10 6 0 1
-15 37 -17 46 -3 3 6 -4 10 -17 10 -22 0 -22 1 7 24 22 17 29 32 30 59 1 27
-2 34 -13 29 -9 -3 -13 -1 -9 5 4 6 -9 9 -36 8 -23 -2 -49 2 -57 9 -13 9 -13
9 -2 -6z"/>
<path d="M3230 1450 c-9 -6 -10 -10 -3 -10 6 0 15 5 18 10 8 12 4 12 -15 0z"/>
<path d="M3455 1441 c6 -33 -5 -60 -23 -54 -14 4 -15 3 -2 -5 17 -13 30 -6 30
16 0 13 2 14 9 4 6 -10 10 -7 13 11 4 19 1 24 -10 19 -10 -3 -13 -1 -8 6 3 6
2 13 -3 17 -6 3 -8 -3 -6 -14z"/>
<path d="M2926 1434 c-17 -12 -17 -14 -4 -14 9 0 20 5 23 11 11 17 2 18 -19 3z"/>
<path d="M2688 1410 c18 -11 30 -25 27 -30 -3 -6 -1 -10 4 -10 24 0 7 31 -26
49 -36 19 -40 12 -5 -9z"/>
<path d="M2900 1394 c0 -8 5 -12 10 -9 6 3 10 10 10 16 0 5 -4 9 -10 9 -5 0
-10 -7 -10 -16z"/>
<path d="M3336 1391 c2 -2 -4 -10 -14 -18 -15 -12 -14 -13 8 -2 14 7 39 16 55
20 27 7 25 7 -12 6 -23 -1 -39 -4 -37 -6z"/>
<path d="M3363 1290 c2 -8 12 -16 23 -17 13 -2 15 -1 4 4 -8 3 -19 11 -23 17
-6 7 -7 6 -4 -4z"/>
<path d="M2744 1235 c-15 -14 -22 -25 -15 -25 6 0 19 8 29 18 9 9 26 16 37 14
17 -3 17 -1 5 7 -21 15 -26 14 -56 -14z"/>
<path d="M3381 1234 c0 -11 3 -14 6 -6 3 7 2 16 -1 19 -3 4 -6 -2 -5 -13z"/>
<path d="M3348 1202 c-10 -2 -15 -9 -11 -18 7 -18 23 -18 23 1 0 9 6 12 15 9
8 -4 15 -2 15 3 0 10 -13 12 -42 5z"/>
<path d="M3260 1190 c0 -5 5 -10 10 -10 6 0 10 5 10 10 0 6 -4 10 -10 10 -5 0
-10 -4 -10 -10z"/>
<path d="M2960 1179 c0 -5 5 -7 10 -4 6 3 10 8 10 11 0 2 -4 4 -10 4 -5 0 -10
-5 -10 -11z"/>
<path d="M3060 1181 c0 -6 4 -13 10 -16 6 -3 7 1 4 9 -7 18 -14 21 -14 7z"/>
<path d="M3342 1100 c0 -14 2 -19 5 -12 2 6 2 18 0 25 -3 6 -5 1 -5 -13z"/>
<path d="M3282 1070 c0 -14 4 -36 8 -50 6 -20 8 -21 8 -5 0 11 -4 34 -8 50 -7
27 -8 27 -8 5z"/>
<path d="M2718 1063 c7 -3 16 -2 19 1 4 3 -2 6 -13 5 -11 0 -14 -3 -6 -6z"/>
<path d="M3146 1031 c-4 -5 3 -7 14 -4 23 6 26 13 6 13 -8 0 -17 -4 -20 -9z"/>
<path d="M3205 1031 c-17 -7 -16 -9 13 -15 17 -4 32 -12 32 -18 0 -6 -7 -8
-15 -4 -23 8 -18 2 18 -24 17 -13 29 -19 25 -15 -4 4 -2 15 5 24 10 14 10 14
-4 4 -22 -17 -32 -4 -12 15 14 14 14 17 -3 29 -20 15 -30 15 -59 4z m55 -11
c18 -12 2 -12 -25 0 -13 6 -15 9 -5 9 8 0 22 -4 30 -9z"/>
<path d="M3332 1010 c0 -19 2 -27 5 -17 2 9 2 25 0 35 -3 9 -5 1 -5 -18z"/>
<path d="M3310 975 c0 -5 5 -17 10 -25 5 -8 10 -10 10 -5 0 6 -5 17 -10 25 -5
8 -10 11 -10 5z"/>
<path d="M3259 910 c-19 -16 -20 -19 -5 -13 14 5 17 3 11 -7 -5 -9 -4 -11 4
-6 6 4 9 11 6 16 -3 4 1 10 7 13 7 2 10 7 7 11 -3 4 -17 -3 -30 -14z"/>
<path d="M3060 906 c0 -2 7 -6 15 -10 8 -3 15 -1 15 4 0 6 -7 10 -15 10 -8 0
-15 -2 -15 -4z"/>
<path d="M3140 890 c-21 -7 -21 -8 -5 -9 11 0 27 4 35 9 18 11 5 11 -30 0z"/>
<path d="M3291 874 c0 -11 3 -14 6 -6 3 7 2 16 -1 19 -3 4 -6 -2 -5 -13z"/>
<path d="M2675 850 c3 -5 8 -10 11 -10 2 0 4 5 4 10 0 6 -5 10 -11 10 -5 0 -7
-4 -4 -10z"/>
<path d="M2910 830 c0 -11 4 -20 9 -20 5 0 7 9 4 20 -3 11 -7 20 -9 20 -2 0
-4 -9 -4 -20z"/>
<path d="M3312 820 c0 -14 2 -19 5 -12 2 6 2 18 0 25 -3 6 -5 1 -5 -13z"/>
<path d="M2670 820 c0 -5 5 -10 11 -10 5 0 7 5 4 10 -3 6 -8 10 -11 10 -2 0
-4 -4 -4 -10z"/>
<path d="M2948 823 c6 -2 18 -2 25 0 6 3 1 5 -13 5 -14 0 -19 -2 -12 -5z"/>
<path d="M2755 810 c3 -5 8 -10 11 -10 2 0 4 5 4 10 0 6 -5 10 -11 10 -5 0 -7
-4 -4 -10z"/>
<path d="M3330 810 c0 -5 5 -10 11 -10 5 0 7 5 4 10 -3 6 -8 10 -11 10 -2 0
-4 -4 -4 -10z"/>
<path d="M2795 800 c3 -5 11 -10 16 -10 6 0 7 5 4 10 -3 6 -11 10 -16 10 -6 0
-7 -4 -4 -10z"/>
<path d="M2733 783 c9 -2 23 -2 30 0 6 3 -1 5 -18 5 -16 0 -22 -2 -12 -5z"/>
<path d="M2553 773 c9 -2 25 -2 35 0 9 3 1 5 -18 5 -19 0 -27 -2 -17 -5z"/>
<path d="M2918 773 c23 -2 61 -2 85 0 23 2 4 4 -43 4 -47 0 -66 -2 -42 -4z"/>
<path d="M3338 773 c7 -3 16 -2 19 1 4 3 -2 6 -13 5 -11 0 -14 -3 -6 -6z"/>
<path d="M3577 1567 c-3 -8 1 -14 8 -14 7 0 11 6 8 14 -3 7 -6 13 -8 13 -2 0
-5 -6 -8 -13z"/>
<path d="M1972 980 c0 -14 2 -19 5 -12 2 6 2 18 0 25 -3 6 -5 1 -5 -13z"/>
<path d="M2500 1283 c5 -2 8 -9 4 -14 -3 -5 0 -9 6 -9 15 0 7 23 -8 26 -7 1
-8 0 -2 -3z"/>
<path d="M4478 3593 c34 -2 62 -8 62 -13 0 -14 22 -12 42 4 15 11 3 13 -75 13
-64 0 -73 -2 -29 -4z"/>
<path d="M340 3585 c0 -2 10 -10 23 -16 20 -11 21 -11 8 4 -13 16 -31 23 -31
12z"/>
<path d="M1849 3583 c-1 -4 0 -19 1 -32 1 -18 -2 -22 -14 -18 -19 8 -22 -23
-4 -41 36 -36 80 16 56 66 -13 25 -37 41 -39 25z"/>
<path d="M1967 3560 c5 -30 -10 -43 -20 -17 -3 7 -6 4 -6 -6 -1 -29 18 -57 39
-57 37 0 53 65 24 94 -26 27 -44 20 -37 -14z"/>
<path d="M929 3519 c-23 -19 -23 -20 -2 -10 12 6 25 16 28 21 10 16 -1 12 -26
-11z"/>
<path d="M4540 3471 c-16 -31 -12 -86 9 -110 17 -19 21 -20 34 -7 8 8 18 12
21 8 4 -3 4 2 0 12 -5 14 -4 17 4 12 7 -4 12 -3 12 3 0 5 -4 13 -10 16 -5 3
-10 17 -10 30 0 23 -23 55 -40 55 -5 0 -14 -9 -20 -19z m26 -48 c-11 -11 -19
6 -11 24 8 17 8 17 12 0 3 -10 2 -21 -1 -24z"/>
<path d="M4610 3431 c0 -5 5 -13 10 -16 6 -3 10 -2 10 4 0 5 -4 13 -10 16 -5
3 -10 2 -10 -4z"/>
<path d="M899 3343 c-13 -16 -12 -17 4 -4 9 7 17 15 17 17 0 8 -8 3 -21 -13z"/>
<path d="M570 3285 c0 -33 23 -65 47 -63 15 2 22 7 18 16 -3 8 -5 16 -5 19 0
3 -7 -1 -16 -8 -14 -11 -16 -10 -13 6 4 22 -7 45 -22 45 -5 0 -9 -7 -9 -15z"/>
<path d="M783 3289 c-6 -6 -9 -18 -5 -27 4 -11 1 -14 -11 -9 -12 5 -17 1 -17
-13 0 -26 36 -27 50 -1 12 23 13 61 2 61 -4 0 -13 -5 -19 -11z"/>
<path d="M5133 3243 c9 -2 23 -2 30 0 6 3 -1 5 -18 5 -16 0 -22 -2 -12 -5z"/>
<path d="M5038 3233 c7 -3 16 -2 19 1 4 3 -2 6 -13 5 -11 0 -14 -3 -6 -6z"/>
<path d="M1821 3214 c0 -11 3 -14 6 -6 3 7 2 16 -1 19 -3 4 -6 -2 -5 -13z"/>
<path d="M2010 3126 c0 -9 -16 -26 -35 -37 -19 -11 -37 -30 -41 -41 -6 -19 -6
-19 -19 -1 -24 35 -75 85 -75 75 0 -5 19 -32 42 -60 l42 -49 32 33 c17 19 36
34 42 34 11 0 26 49 17 58 -3 3 -5 -2 -5 -12z"/>
<path d="M4681 3074 c0 -11 3 -14 6 -6 3 7 2 16 -1 19 -3 4 -6 -2 -5 -13z"/>
<path d="M4540 3050 c0 -11 4 -20 9 -20 5 0 7 9 4 20 -3 11 -7 20 -9 20 -2 0
-4 -9 -4 -20z"/>
<path d="M512 3010 c0 -14 2 -19 5 -12 2 6 2 18 0 25 -3 6 -5 1 -5 -13z"/>
<path d="M4682 3000 c0 -14 2 -19 5 -12 2 6 2 18 0 25 -3 6 -5 1 -5 -13z"/>
<path d="M887 2992 c1 -8 3 -19 3 -25 0 -7 4 -6 9 2 15 24 132 -39 170 -91 17
-23 29 -43 27 -45 -2 -2 -23 8 -47 22 -28 16 -60 25 -87 25 -35 0 -44 4 -52
23 -12 31 -12 14 1 -38 6 -25 15 -43 19 -40 9 5 70 -60 70 -75 0 -4 3 -17 7
-27 5 -13 -4 -9 -34 14 l-40 33 17 -88 c10 -48 21 -115 25 -148 5 -50 12 -67
35 -89 23 -22 27 -32 20 -50 -7 -19 -6 -22 11 -18 23 6 24 21 5 59 -8 15 -13
31 -10 36 3 4 -1 5 -9 2 -20 -7 -33 15 -40 66 -4 25 -9 60 -13 78 l-6 32 330
0 330 0 7 -39 c4 -28 2 -49 -10 -71 -9 -18 -14 -34 -11 -37 10 -10 36 70 36
111 0 23 -7 68 -15 99 -21 82 -20 105 8 110 20 3 21 4 3 12 -11 5 -26 4 -37
-3 -12 -8 -20 -8 -24 -2 -4 6 -11 7 -17 4 -7 -5 -9 2 -4 22 4 16 10 53 13 82
l5 52 -345 0 c-190 0 -347 3 -350 8 -2 4 -2 1 0 -6z"/>
<path d="M0 2820 l0 -170 219 0 218 0 -5 -92 c-4 -86 -7 -95 -33 -118 -29 -27
-48 -70 -30 -70 6 0 11 -8 11 -17 0 -15 2 -15 9 -4 5 8 6 24 1 35 -6 16 -1 28
25 51 l32 30 6 138 7 137 -34 0 c-19 0 -40 8 -49 18 -22 24 -23 54 -2 46 27
-11 60 5 83 39 12 18 22 36 22 40 0 4 -25 7 -56 7 -49 0 -58 -3 -86 -32 l-30
-33 6 44 c8 50 24 76 63 102 28 19 26 19 -174 19 l-203 0 0 -170z"/>
<path d="M670 2830 c8 -5 24 -10 34 -10 26 0 18 6 -19 14 -22 5 -26 4 -15 -4z"/>
<path d="M830 2820 c6 -11 13 -20 16 -20 2 0 0 9 -6 20 -6 11 -13 20 -16 20
-2 0 0 -9 6 -20z"/>
<path d="M813 2745 c-8 -24 4 -87 21 -103 13 -14 13 -8 1 44 -10 45 -11 61 -2
66 9 6 9 8 -1 8 -7 0 -15 -7 -19 -15z"/>
<path d="M522 2710 c-11 -36 -39 -175 -44 -221 -2 -16 9 -41 30 -69 17 -24 32
-42 33 -39 0 2 2 12 4 22 2 9 -1 15 -5 12 -5 -3 -11 4 -15 15 -4 11 -10 18
-15 15 -17 -10 -20 14 -10 91 12 93 20 137 26 131 2 -2 -1 -39 -7 -81 -10 -69
-10 -79 6 -96 11 -12 15 -28 12 -41 -6 -21 -5 -21 11 -6 15 16 15 19 -1 47
-15 24 -17 42 -11 92 4 35 11 65 15 69 5 3 3 25 -4 50 l-13 44 -12 -35z"/>
<path d="M621 2674 c-23 -30 -25 -42 -11 -64 8 -11 9 -8 4 13 -5 21 -3 27 10
27 12 0 16 -10 16 -37 0 -54 11 -33 16 31 5 62 -4 70 -35 30z"/>
<path d="M697 2685 c-9 -22 0 -35 23 -35 10 0 22 -5 26 -12 5 -7 2 -9 -7 -6
-10 4 -15 -1 -15 -12 0 -10 6 -16 13 -13 7 3 13 9 13 14 0 6 6 4 14 -3 7 -7
11 -20 8 -28 -4 -12 -2 -13 9 -2 18 17 34 15 20 -2 -9 -11 -9 -16 0 -22 7 -4
9 -3 5 4 -3 6 1 15 10 20 15 8 14 10 -7 17 -13 3 -42 27 -65 52 -34 38 -42 43
-47 28z"/>
<path d="M697 2633 c-4 -3 -7 -13 -7 -22 1 -13 3 -13 11 2 11 19 8 33 -4 20z"/>
<path d="M991 2624 c0 -11 3 -14 6 -6 3 7 2 16 -1 19 -3 4 -6 -2 -5 -13z"/>
<path d="M1218 2633 c12 -2 32 -2 45 0 12 2 2 4 -23 4 -25 0 -35 -2 -22 -4z"/>
<path d="M1601 2630 c0 -8 4 -22 9 -30 12 -18 12 -2 0 25 -6 13 -9 15 -9 5z"/>
<path d="M2281 2625 c0 -11 6 -31 14 -45 18 -31 18 -16 0 30 -9 23 -14 28 -14
15z"/>
<path d="M2317 2619 c-4 -16 -3 -18 9 -8 16 13 19 29 5 29 -5 0 -11 -9 -14
-21z"/>
<path d="M4880 2636 c0 -2 7 -6 15 -10 8 -3 15 -1 15 4 0 6 -7 10 -15 10 -8 0
-15 -2 -15 -4z"/>
<path d="M5072 2615 c0 -16 2 -22 5 -12 2 9 2 23 0 30 -3 6 -5 -1 -5 -18z"/>
<path d="M5588 2633 c7 -3 16 -2 19 1 4 3 -2 6 -13 5 -11 0 -14 -3 -6 -6z"/>
<path d="M4630 2621 c0 -8 -6 -11 -16 -7 -14 6 -15 4 -4 -9 12 -15 14 -15 23
0 5 9 6 19 3 22 -3 4 -6 1 -6 -6z"/>
<path d="M4796 2603 c-6 -14 -5 -15 5 -6 7 7 10 15 7 18 -3 3 -9 -2 -12 -12z"/>
<path d="M574 2593 c11 -13 25 -23 32 -23 7 0 17 -7 22 -16 8 -15 10 -15 15 0
4 10 3 15 -3 11 -6 -3 -10 -1 -10 4 0 6 -8 11 -17 11 -9 0 -26 8 -37 18 -21
17 -21 17 -2 -5z"/>
<path d="M904 2563 c1 -27 6 -48 14 -51 14 -4 17 -32 3 -32 -5 0 -18 -18 -29
-40 -16 -34 -17 -43 -6 -57 12 -16 12 -16 7 5 -4 17 3 32 27 57 l32 33 -22 66
c-12 36 -23 66 -25 66 -1 0 -2 -21 -1 -47z"/>
<path d="M1022 2585 c0 -16 2 -22 5 -12 2 9 2 23 0 30 -3 6 -5 -1 -5 -18z"/>
<path d="M3435 2600 c-4 -6 3 -10 14 -10 25 0 27 6 6 13 -8 4 -17 2 -20 -3z"/>
<path d="M4580 2604 c0 -13 18 -39 24 -34 2 3 -2 14 -10 24 -8 11 -14 16 -14
10z"/>
<path d="M4859 2594 c-10 -13 -10 -17 2 -25 19 -12 29 -11 29 2 0 5 -5 7 -12
3 -8 -5 -9 0 -6 14 7 26 5 27 -13 6z"/>
<path d="M671 2561 c-8 -17 -11 -34 -8 -38 8 -7 29 46 24 60 -2 6 -9 -4 -16
-22z"/>
<path d="M845 2580 c-3 -6 1 -7 9 -4 18 7 21 14 7 14 -6 0 -13 -4 -16 -10z"/>
<path d="M1001 2559 c0 -19 4 -43 9 -54 6 -13 7 -2 3 30 -7 59 -13 72 -12 24z"/>
<path d="M4714 2578 c-10 -15 1 -19 27 -9 13 5 22 10 19 11 -25 7 -41 7 -46
-2z"/>
<path d="M4901 2580 c0 -8 4 -22 9 -30 12 -18 12 -2 0 25 -6 13 -9 15 -9 5z"/>
<path d="M715 2569 c-4 -6 -5 -12 -2 -15 2 -3 7 2 10 11 7 17 1 20 -8 4z"/>
<path d="M3380 2570 c8 -5 20 -10 25 -10 6 0 3 5 -5 10 -8 5 -19 10 -25 10 -5
0 -3 -5 5 -10z"/>
<path d="M3470 2570 c8 -5 20 -10 25 -10 6 0 3 5 -5 10 -8 5 -19 10 -25 10 -5
0 -3 -5 5 -10z"/>
<path d="M3875 2570 c-3 -5 -1 -10 4 -10 6 0 11 5 11 10 0 6 -2 10 -4 10 -3 0
-8 -4 -11 -10z"/>
<path d="M3912 2560 c0 -14 2 -19 5 -12 2 6 2 18 0 25 -3 6 -5 1 -5 -13z"/>
<path d="M860 2565 c-2 -5 -2 -14 -1 -18 1 -4 -6 -22 -15 -40 -16 -30 -16 -31
0 -18 26 22 34 44 25 66 -4 11 -8 16 -9 10z"/>
<path d="M6009 2568 c0 -2 -2 -13 -3 -26 -3 -21 -2 -21 15 -6 18 16 17 34 -2
34 -5 0 -9 -1 -10 -2z"/>
<path d="M830 2544 c0 -11 -4 -25 -10 -32 -5 -7 0 -3 12 8 17 15 20 22 10 32
-9 9 -12 8 -12 -8z"/>
<path d="M5080 2546 c0 -8 -5 -16 -12 -18 -7 -3 -8 -7 -3 -10 6 -2 18 3 27 13
14 15 14 18 2 23 -8 3 -14 -1 -14 -8z"/>
<path d="M6340 2546 c4 -4 16 -4 26 2 16 9 14 10 -8 9 -15 -1 -23 -6 -18 -11z"/>
<path d="M691 2534 c0 -11 3 -14 6 -6 3 7 2 16 -1 19 -3 4 -6 -2 -5 -13z"/>
<path d="M2982 2534 c-14 -16 -5 -18 17 -5 7 5 9 11 5 14 -5 3 -15 -1 -22 -9z"/>
<path d="M6376 2534 c-11 -8 -16 -14 -10 -14 13 0 39 18 34 24 -3 2 -14 -2
-24 -10z"/>
<path d="M2562 2531 c2 -7 7 -12 11 -12 12 1 9 15 -3 20 -7 2 -11 -2 -8 -8z"/>
<path d="M3538 2529 c-24 -14 -23 -26 5 -39 20 -10 20 -10 5 3 -22 17 -23 27
-3 27 8 0 15 5 15 10 0 12 0 12 -22 -1z"/>
<path d="M4881 2524 c0 -11 3 -14 6 -6 3 7 2 16 -1 19 -3 4 -6 -2 -5 -13z"/>
<path d="M2538 2503 c7 -3 16 -2 19 1 4 3 -2 6 -13 5 -11 0 -14 -3 -6 -6z"/>
<path d="M6360 2501 c0 -5 7 -11 14 -14 10 -4 13 -1 9 9 -6 15 -23 19 -23 5z"/>
<path d="M1602 2461 c2 -26 5 -30 23 -25 27 9 67 36 61 41 -2 3 -13 0 -24 -6
-26 -14 -28 -14 -47 5 -14 15 -15 13 -13 -15z"/>
<path d="M1435 2470 c-17 -6 -16 -8 9 -14 33 -8 39 -5 22 10 -6 6 -20 8 -31 4z"/>
<path d="M4110 2470 c-8 -5 -12 -12 -9 -15 4 -3 12 1 19 10 14 17 11 19 -10 5z"/>
<path d="M830 2460 c0 -5 5 -10 11 -10 5 0 7 5 4 10 -3 6 -8 10 -11 10 -2 0
-4 -4 -4 -10z"/>
<path d="M3692 2454 c10 -10 20 -15 24 -12 3 4 -5 12 -18 18 -22 12 -22 12 -6
-6z"/>
<path d="M4011 2439 c-13 -10 -19 -19 -15 -19 13 1 48 29 43 34 -2 2 -15 -4
-28 -15z"/>
<path d="M4338 2453 c7 -3 16 -2 19 1 4 3 -2 6 -13 5 -11 0 -14 -3 -6 -6z"/>
<path d="M6152 2440 c-11 -18 -10 -20 10 -19 13 0 18 3 11 5 -7 3 -9 12 -6 20
8 20 0 17 -15 -6z"/>
<path d="M60 2440 c0 -5 5 -10 10 -10 6 0 10 5 10 10 0 6 -4 10 -10 10 -5 0
-10 -4 -10 -10z"/>
<path d="M4070 2443 c-18 -7 -44 -32 -39 -38 2 -2 18 8 34 21 31 24 31 27 5
17z"/>
<path d="M4255 2440 c3 -5 8 -10 11 -10 2 0 4 5 4 10 0 6 -5 10 -11 10 -5 0
-7 -4 -4 -10z"/>
<path d="M5788 2443 c6 -2 18 -2 25 0 6 3 1 5 -13 5 -14 0 -19 -2 -12 -5z"/>
<path d="M6036 2435 c-3 -8 -1 -15 3 -15 5 0 11 7 15 15 3 8 1 15 -3 15 -5 0
-11 -7 -15 -15z"/>
<path d="M6078 2443 c6 -2 18 -2 25 0 6 3 1 5 -13 5 -14 0 -19 -2 -12 -5z"/>
<path d="M6197 2439 c7 -7 15 -10 18 -7 3 3 -2 9 -12 12 -14 6 -15 5 -6 -5z"/>
<path d="M2995 2430 c-3 -5 -1 -10 4 -10 6 0 11 5 11 10 0 6 -2 10 -4 10 -3 0
-8 -4 -11 -10z"/>
<path d="M3594 2424 c9 -8 22 -13 29 -11 9 4 9 6 -1 6 -7 1 -10 6 -7 11 3 6
-3 10 -15 10 -20 0 -20 -1 -6 -16z"/>
<path d="M3898 2433 c7 -3 16 -2 19 1 4 3 -2 6 -13 5 -11 0 -14 -3 -6 -6z"/>
<path d="M4350 2430 c0 -5 5 -10 10 -10 6 0 10 5 10 10 0 6 -4 10 -10 10 -5 0
-10 -4 -10 -10z"/>
<path d="M5670 2428 c0 -4 21 -8 48 -7 52 1 48 6 -10 11 -21 2 -38 0 -38 -4z"/>
<path d="M1080 2416 c0 -8 4 -17 9 -20 5 -4 7 3 4 14 -6 23 -13 26 -13 6z"/>
<path d="M1627 2416 c-4 -10 -1 -13 8 -9 8 3 12 9 9 14 -7 12 -11 11 -17 -5z"/>
<path d="M2544 2390 c-32 -21 -65 -44 -72 -50 -7 -6 -17 -8 -24 -4 -6 4 -8 3
-5 -3 4 -6 -16 -25 -44 -43 -27 -18 -47 -36 -42 -40 4 -4 32 -15 61 -25 61
-20 119 -66 128 -101 9 -37 22 -29 29 19 12 80 27 182 35 230 4 26 4 49 0 52
-3 2 -33 -14 -66 -35z"/>
<path d="M3120 2420 c-8 -5 -10 -10 -5 -10 6 0 17 5 25 10 8 5 11 10 5 10 -5
0 -17 -5 -25 -10z"/>
<path d="M3740 2426 c0 -2 7 -7 16 -10 8 -3 12 -2 9 4 -6 10 -25 14 -25 6z"/>
<path d="M5780 2420 c0 -5 5 -10 11 -10 5 0 7 5 4 10 -3 6 -8 10 -11 10 -2 0
-4 -4 -4 -10z"/>
<path d="M6098 2423 c6 -2 18 -2 25 0 6 3 1 5 -13 5 -14 0 -19 -2 -12 -5z"/>
<path d="M990 2395 c0 -29 -25 -61 -35 -45 -3 5 -12 10 -18 9 -9 0 -9 -2 1 -6
25 -10 11 -23 -20 -18 -18 4 -29 3 -25 -1 10 -10 117 -13 117 -3 0 4 -4 10 -9
13 -4 3 -6 17 -4 31 3 13 10 22 15 18 6 -3 9 0 6 7 -8 26 -28 22 -28 -5z m0
-55 c0 -5 -5 -10 -11 -10 -5 0 -7 5 -4 10 3 6 8 10 11 10 2 0 4 -4 4 -10z"/>
<path d="M1387 2406 c-4 -10 -1 -13 8 -9 8 3 12 9 9 14 -7 12 -11 11 -17 -5z"/>
<path d="M1931 2404 c0 -11 3 -14 6 -6 3 7 2 16 -1 19 -3 4 -6 -2 -5 -13z"/>
<path d="M2236 2412 c-3 -5 1 -9 9 -9 8 0 12 4 9 9 -3 4 -7 8 -9 8 -2 0 -6 -4
-9 -8z"/>
<path d="M3690 2410 c-8 -5 -10 -10 -5 -10 6 0 17 5 25 10 8 5 11 10 5 10 -5
0 -17 -5 -25 -10z"/>
<path d="M4271 2404 c0 -11 3 -14 6 -6 3 7 2 16 -1 19 -3 4 -6 -2 -5 -13z"/>
<path d="M5105 2409 c-4 -6 -5 -12 -2 -15 2 -3 7 2 10 11 7 17 1 20 -8 4z"/>
<path d="M6220 2416 c0 -2 7 -7 16 -10 8 -3 12 -2 9 4 -6 10 -25 14 -25 6z"/>
<path d="M6270 2410 c8 -5 20 -10 25 -10 6 0 3 5 -5 10 -8 5 -19 10 -25 10 -5
0 -3 -5 5 -10z"/>
<path d="M940 2396 c0 -8 5 -18 10 -21 6 -3 10 1 10 9 0 8 -4 18 -10 21 -5 3
-10 -1 -10 -9z"/>
<path d="M5738 2403 c7 -3 16 -2 19 1 4 3 -2 6 -13 5 -11 0 -14 -3 -6 -6z"/>
<path d="M413 2386 c4 -10 7 -26 7 -37 0 -10 3 -19 8 -19 13 0 7 63 -7 68 -10
3 -12 0 -8 -12z"/>
<path d="M465 2369 c-4 -17 -4 -33 -1 -37 9 -9 37 -12 32 -3 -3 4 -1 13 4 20
6 11 10 9 19 -8 12 -22 41 -29 41 -10 0 5 -4 7 -10 4 -14 -9 -12 8 3 25 10 12
9 12 -6 0 -15 -11 -20 -11 -27 -1 -4 8 -13 10 -19 7 -6 -4 -11 -1 -11 8 0 29
-18 26 -25 -5z m25 -18 c0 -6 -4 -13 -10 -16 -5 -3 -10 1 -10 9 0 9 5 16 10
16 6 0 10 -4 10 -9z"/>
<path d="M910 2390 c0 -5 5 -10 11 -10 5 0 7 5 4 10 -3 6 -8 10 -11 10 -2 0
-4 -4 -4 -10z"/>
<path d="M2703 2340 c0 -36 2 -50 4 -32 2 17 2 47 0 65 -2 17 -4 3 -4 -33z"/>
<path d="M1670 2380 c8 -5 20 -10 25 -10 6 0 3 5 -5 10 -8 5 -19 10 -25 10 -5
0 -3 -5 5 -10z"/>
<path d="M1849 2383 c-5 -40 -3 -80 3 -77 5 3 8 0 8 -7 0 -29 14 5 15 35 0 24
-3 32 -12 29 -9 -4 -11 0 -7 11 3 9 3 16 0 16 -3 0 -6 -3 -7 -7z"/>
<path d="M2317 2376 c-4 -10 -3 -15 3 -11 6 3 10 1 10 -6 0 -7 3 -10 6 -6 3 3
2 13 -4 22 -8 16 -9 16 -15 1z"/>
<path d="M4937 2376 c-8 -21 15 -48 32 -37 17 11 5 32 -14 24 -11 -4 -13 -1
-9 11 3 9 4 16 1 16 -3 0 -7 -6 -10 -14z"/>
<path d="M1397 2373 c-4 -3 -7 -11 -7 -17 0 -6 5 -5 12 2 6 6 9 14 7 17 -3 3
-9 2 -12 -2z"/>
<path d="M1755 2371 c-3 -5 0 -13 6 -17 7 -4 9 -3 5 4 -3 6 3 12 16 15 23 4
23 4 1 6 -12 0 -24 -3 -28 -8z"/>
<path d="M325 2360 c-3 -5 -2 -10 4 -10 5 0 13 5 16 10 3 6 2 10 -4 10 -5 0
-13 -4 -16 -10z"/>
<path d="M1372 2350 c0 -14 2 -19 5 -12 2 6 2 18 0 25 -3 6 -5 1 -5 -13z"/>
<path d="M1060 2350 c0 -5 5 -10 11 -10 5 0 7 5 4 10 -3 6 -8 10 -11 10 -2 0
-4 -4 -4 -10z"/>
<path d="M4570 2354 c8 -4 21 -14 28 -23 13 -14 13 -14 10 4 -2 13 -12 21 -28
22 -14 1 -18 0 -10 -3z"/>
<path d="M1023 2326 c0 -14 3 -26 8 -26 11 0 11 21 0 39 -6 9 -8 5 -8 -13z"/>
<path d="M1810 2331 c0 -6 5 -13 10 -16 6 -3 10 1 10 9 0 9 -4 16 -10 16 -5 0
-10 -4 -10 -9z"/>
<path d="M3600 2332 c0 -5 7 -13 16 -16 10 -4 14 -1 12 6 -5 15 -28 23 -28 10z"/>
<path d="M5056 2331 c-4 -5 1 -8 9 -7 21 3 31 16 12 16 -9 0 -18 -4 -21 -9z"/>
<path d="M3535 2310 c4 -6 11 -8 16 -5 14 9 11 15 -7 15 -8 0 -12 -5 -9 -10z"/>
<path d="M4622 2300 c0 -14 2 -19 5 -12 2 6 2 18 0 25 -3 6 -5 1 -5 -13z"/>
<path d="M4716 2311 c-3 -4 6 -8 20 -9 13 -1 24 0 24 2 0 7 -40 14 -44 7z"/>
<path d="M1515 2293 c5 -10 8 -26 9 -35 0 -9 3 -15 6 -13 3 2 30 -50 60 -115
30 -66 58 -120 61 -120 4 0 9 18 13 41 7 42 38 81 109 134 21 15 34 31 30 35
-10 9 -266 90 -283 90 -8 0 -9 -6 -5 -17z"/>
<path d="M4681 2297 c2 -1 13 -9 24 -17 19 -14 19 -14 6 3 -7 9 -18 17 -24 17
-6 0 -8 -1 -6 -3z"/>
<path d="M3520 2279 c0 -5 5 -7 10 -4 6 3 10 8 10 11 0 2 -4 4 -10 4 -5 0 -10
-5 -10 -11z"/>
<path d="M4730 2285 c0 -8 23 -47 38 -63 16 -18 15 -12 -4 26 -14 29 -34 51
-34 37z"/>
<path d="M4777 2261 c3 -12 9 -24 13 -26 12 -8 6 23 -8 37 -8 8 -9 5 -5 -11z"/>
<path d="M2275 2250 c4 -6 -3 -22 -14 -36 -12 -15 -21 -31 -21 -36 0 -16 -53
-88 -65 -88 -15 0 -35 43 -35 75 0 14 -5 25 -11 25 -17 0 -3 -70 20 -100 10
-14 26 -24 35 -22 14 2 14 0 -1 -26 -11 -19 -14 -39 -9 -62 7 -42 68 -116 110
-136 17 -8 22 -9 11 -2 -41 26 -96 93 -107 130 -10 34 -9 44 7 71 26 47 76 97
110 113 17 7 24 13 17 14 -18 0 -52 -18 -81 -44 -22 -20 -22 -18 5 24 15 25
34 52 41 61 17 21 16 36 -3 43 -9 3 -12 2 -9 -4z"/>
<path d="M3558 2243 c7 -3 16 -2 19 1 4 3 -2 6 -13 5 -11 0 -14 -3 -6 -6z"/>
<path d="M1470 2228 c0 -9 5 -20 10 -23 13 -8 13 5 0 25 -8 13 -10 13 -10 -2z"/>
<path d="M2682 2220 c0 -14 2 -19 5 -12 2 6 2 18 0 25 -3 6 -5 1 -5 -13z"/>
<path d="M6320 2225 c0 -8 4 -15 10 -15 5 0 7 7 4 15 -4 8 -8 15 -10 15 -2 0
-4 -7 -4 -15z"/>
<path d="M1888 2212 c-4 -12 -3 -20 1 -17 5 2 20 -9 36 -25 30 -32 27 -57 -6
-40 -11 6 -18 14 -15 18 2 4 -20 9 -49 10 -43 3 -61 -2 -94 -22 -40 -26 -91
-98 -91 -130 0 -9 -4 -15 -9 -12 -11 7 5 -67 21 -98 14 -28 49 -66 61 -66 4 0
-5 14 -22 31 -64 64 -62 149 4 227 71 82 150 79 230 -10 36 -41 45 -57 45 -88
0 -44 -39 -108 -90 -145 -18 -14 -29 -25 -22 -25 17 0 97 81 111 115 26 57 21
86 -21 137 -40 48 -38 76 2 33 47 -50 90 -22 90 56 0 31 -4 48 -10 44 -5 -3
-10 -21 -10 -40 0 -41 -9 -65 -24 -65 -6 0 -38 30 -72 66 -54 60 -61 65 -66
46z"/>
<path d="M1486 2173 c-6 -14 -5 -15 5 -6 7 7 10 15 7 18 -3 3 -9 -2 -12 -12z"/>
<path d="M3450 2180 c0 -5 5 -10 10 -10 6 0 10 5 10 10 0 6 -4 10 -10 10 -5 0
-10 -4 -10 -10z"/>
<path d="M3491 2174 c0 -11 3 -14 6 -6 3 7 2 16 -1 19 -3 4 -6 -2 -5 -13z"/>
<path d="M2380 2159 c56 -25 86 -53 112 -102 46 -91 5 -192 -90 -222 -13 -4
-22 -9 -19 -11 2 -3 15 0 28 5 13 5 28 9 32 9 14 2 57 59 72 96 20 46 8 103
-34 161 -17 23 -27 46 -23 50 4 5 2 5 -5 1 -7 -4 -23 0 -35 7 -13 8 -36 17
-53 21 -23 4 -19 1 15 -15z"/>
<path d="M2920 2150 c-8 -5 -10 -10 -5 -10 6 0 17 5 25 10 8 5 11 10 5 10 -5
0 -17 -5 -25 -10z"/>
<path d="M2698 2143 c7 -3 16 -2 19 1 4 3 -2 6 -13 5 -11 0 -14 -3 -6 -6z"/>
<path d="M1378 2133 c12 -2 32 -2 45 0 12 2 2 4 -23 4 -25 0 -35 -2 -22 -4z"/>
<path d="M2361 2122 c-22 -41 -9 -208 19 -236 18 -18 30 13 29 79 -1 33 -3 52
-6 43 -11 -44 -45 -3 -41 49 2 29 7 38 21 37 21 -2 22 6 3 31 -13 18 -14 18
-25 -3z"/>
<path d="M4930 2131 c-32 -7 -30 -8 28 -15 35 -4 66 -5 69 -2 4 3 -11 7 -33 8
l-39 1 45 7 45 7 -40 0 c-22 0 -56 -3 -75 -6z"/>
<path d="M5818 2133 c7 -3 16 -2 19 1 4 3 -2 6 -13 5 -11 0 -14 -3 -6 -6z"/>
<path d="M5948 2133 c18 -2 45 -2 60 0 15 2 0 4 -33 4 -33 0 -45 -2 -27 -4z"/>
<path d="M6138 2133 c7 -3 16 -2 19 1 4 3 -2 6 -13 5 -11 0 -14 -3 -6 -6z"/>
<path d="M6193 2133 c9 -2 25 -2 35 0 9 3 1 5 -18 5 -19 0 -27 -2 -17 -5z"/>
<path d="M6333 2133 c15 -2 37 -2 50 0 12 2 0 4 -28 4 -27 0 -38 -2 -22 -4z"/>
<path d="M43 2123 c26 -2 67 -2 90 0 23 2 2 3 -48 3 -50 0 -68 -1 -42 -3z"/>
<path d="M1165 2120 c-83 -6 -79 -6 54 -8 79 -1 142 0 140 2 -9 8 -110 11
-194 6z"/>
<path d="M3323 2123 c9 -2 23 -2 30 0 6 3 -1 5 -18 5 -16 0 -22 -2 -12 -5z"/>
<path d="M4831 2114 c0 -11 3 -14 6 -6 3 7 2 16 -1 19 -3 4 -6 -2 -5 -13z"/>
<path d="M1383 2113 c9 -2 23 -2 30 0 6 3 -1 5 -18 5 -16 0 -22 -2 -12 -5z"/>
<path d="M1458 2113 c12 -2 32 -2 45 0 12 2 2 4 -23 4 -25 0 -35 -2 -22 -4z"/>
<path d="M1857 2114 c-11 -12 -8 -178 4 -213 12 -33 33 -41 43 -15 3 9 6 39 5
67 0 29 -3 46 -6 40 -8 -21 -32 -14 -39 11 -9 37 -1 81 14 78 8 -1 12 4 10 14
-3 19 -20 28 -31 18z"/>
<path d="M2733 2113 c9 -2 25 -2 35 0 9 3 1 5 -18 5 -19 0 -27 -2 -17 -5z"/>
<path d="M5063 2113 c15 -2 39 -2 55 0 15 2 2 4 -28 4 -30 0 -43 -2 -27 -4z"/>
<path d="M5198 2113 c12 -2 32 -2 45 0 12 2 2 4 -23 4 -25 0 -35 -2 -22 -4z"/>
<path d="M5323 2113 c9 -2 23 -2 30 0 6 3 -1 5 -18 5 -16 0 -22 -2 -12 -5z"/>
<path d="M5458 2113 c12 -2 32 -2 45 0 12 2 2 4 -23 4 -25 0 -35 -2 -22 -4z"/>
<path d="M5823 2113 c9 -2 25 -2 35 0 9 3 1 5 -18 5 -19 0 -27 -2 -17 -5z"/>
<path d="M6063 2113 c9 -2 25 -2 35 0 9 3 1 5 -18 5 -19 0 -27 -2 -17 -5z"/>
<path d="M6138 2113 c7 -3 16 -2 19 1 4 3 -2 6 -13 5 -11 0 -14 -3 -6 -6z"/>
<path d="M6188 2113 c6 -2 18 -2 25 0 6 3 1 5 -13 5 -14 0 -19 -2 -12 -5z"/>
<path d="M48 2033 c29 -2 74 -2 100 0 26 2 2 3 -53 3 -55 0 -76 -1 -47 -3z"/>
<path d="M648 2023 c7 -3 16 -2 19 1 4 3 -2 6 -13 5 -11 0 -14 -3 -6 -6z"/>
<path d="M1058 2023 c7 -3 16 -2 19 1 4 3 -2 6 -13 5 -11 0 -14 -3 -6 -6z"/>
<path d="M1128 2023 c6 -2 18 -2 25 0 6 3 1 5 -13 5 -14 0 -19 -2 -12 -5z"/>
<path d="M1238 2023 c23 -2 61 -2 85 0 23 2 4 4 -43 4 -47 0 -66 -2 -42 -4z"/>
<path d="M1520 2024 c0 -5 7 -18 15 -28 8 -11 15 -16 15 -10 0 5 -7 18 -15 28
-8 11 -15 16 -15 10z"/>
<path d="M4903 2023 c9 -2 25 -2 35 0 9 3 1 5 -18 5 -19 0 -27 -2 -17 -5z"/>
<path d="M5080 2020 l-45 -7 40 0 c22 0 54 3 70 7 26 7 27 8 5 7 -14 0 -45 -3
-70 -7z"/>
<path d="M5818 2023 c7 -3 16 -2 19 1 4 3 -2 6 -13 5 -11 0 -14 -3 -6 -6z"/>
<path d="M1463 2013 c9 -2 23 -2 30 0 6 3 -1 5 -18 5 -16 0 -22 -2 -12 -5z"/>
<path d="M5223 2013 c9 -2 23 -2 30 0 6 3 -1 5 -18 5 -16 0 -22 -2 -12 -5z"/>
<path d="M5298 2013 c12 -2 32 -2 45 0 12 2 2 4 -23 4 -25 0 -35 -2 -22 -4z"/>
<path d="M6193 2013 c9 -2 25 -2 35 0 9 3 1 5 -18 5 -19 0 -27 -2 -17 -5z"/>
<path d="M6348 2013 c17 -2 47 -2 65 0 17 2 3 4 -33 4 -36 0 -50 -2 -32 -4z"/>
<path d="M3748 1983 c-53 -61 -50 -152 5 -172 50 -19 97 34 97 109 0 67 -64
106 -102 63z m20 -50 c-4 -34 -28 -43 -28 -10 0 25 7 37 22 37 5 0 8 -12 6
-27z"/>
<path d="M1522 1960 c0 -14 2 -19 5 -12 2 6 2 18 0 25 -3 6 -5 1 -5 -13z"/>
<path d="M4834 1948 c-3 -5 2 -15 12 -23 16 -11 17 -17 6 -51 -7 -25 -8 -41
-2 -46 5 -5 8 -5 5 -2 -2 4 2 16 10 28 8 11 15 37 15 57 0 28 -5 38 -20 42
-11 3 -23 1 -26 -5z"/>
<path d="M2513 1875 c-66 -69 -113 -98 -197 -124 -81 -25 -146 -27 -208 -6
-42 15 -48 15 -97 -5 -28 -11 -73 -20 -99 -20 -52 0 -95 22 -193 100 -28 22
-55 38 -60 34 -14 -8 -11 -30 8 -45 15 -12 16 -12 10 5 -6 14 -4 16 5 9 7 -5
33 -25 58 -44 57 -44 142 -89 168 -89 11 0 50 9 86 21 65 19 70 20 141 4 61
-14 84 -15 132 -5 77 15 144 39 168 61 11 10 32 22 47 28 15 6 41 29 57 51 17
24 31 35 34 28 2 -7 -1 -21 -7 -30 -13 -22 -1 -34 19 -18 24 20 17 101 -9 99
-6 0 -34 -25 -63 -54z"/>
<path d="M4905 1922 c-5 -4 -11 -25 -12 -47 -1 -22 0 -35 2 -30 6 16 24 85 22
85 -1 0 -6 -4 -12 -8z"/>
<path d="M6218 1923 c7 -3 16 -2 19 1 4 3 -2 6 -13 5 -11 0 -14 -3 -6 -6z"/>
<path d="M1450 1896 c0 -8 7 -17 16 -20 23 -9 24 -4 2 17 -14 13 -18 14 -18 3z"/>
<path d="M4445 1888 c-13 -10 -29 -37 -35 -59 -9 -33 -8 -46 7 -77 15 -32 23
-37 52 -37 46 0 73 36 73 99 2 74 -48 112 -97 74z m10 -75 c-8 -34 -13 -39
-25 -27 -13 13 -1 54 17 54 12 0 13 -7 8 -27z"/>
<path d="M1042 1860 c0 -14 2 -19 5 -12 2 6 2 18 0 25 -3 6 -5 1 -5 -13z"/>
<path d="M1395 1830 c-3 -5 -1 -10 4 -10 6 0 11 5 11 10 0 6 -2 10 -4 10 -3 0
-8 -4 -11 -10z"/>
<path d="M1755 1820 c-3 -5 1 -10 9 -10 9 0 16 5 16 10 0 6 -4 10 -9 10 -6 0
-13 -4 -16 -10z"/>
<path d="M4813 1579 l6 -252 33 -28 c59 -50 142 -89 190 -89 24 0 49 -5 56
-12 16 -16 24 -5 9 14 -14 19 -63 36 -53 19 10 -15 -32 -13 -69 3 -29 13 -29
13 -5 13 74 0 111 13 74 27 -9 4 -13 2 -8 -5 5 -8 -3 -10 -24 -7 -19 3 -29 1
-25 -6 4 -5 -1 -7 -11 -3 -10 4 -20 7 -22 7 -3 0 -2 5 2 12 4 7 3 8 -5 4 -6
-4 -8 -12 -5 -18 4 -6 1 -9 -7 -6 -8 3 -14 13 -14 23 0 10 -7 21 -15 23 -13 5
-13 3 -1 -11 21 -26 0 -19 -38 11 l-33 28 -4 106 -4 105 31 1 c17 0 41 8 54
16 22 15 24 14 22 -4 -1 -14 -6 -18 -19 -14 -10 3 -18 1 -18 -4 0 -5 10 -9 23
-8 21 1 22 6 24 77 1 69 0 76 -17 72 -29 -8 -77 52 -71 90 0 4 -3 7 -9 7 -5 0
-10 5 -10 11 0 6 7 9 14 6 10 -4 13 -1 9 8 -3 8 -9 13 -13 10 -4 -3 -13 2 -20
10 -30 36 -32 13 -27 -236z m30 205 c-2 -7 5 -33 16 -59 15 -33 29 -50 51 -58
26 -10 30 -17 30 -47 0 -47 -15 -60 -67 -60 l-43 0 0 83 c0 45 -3 98 -6 118
-5 28 -3 36 9 36 8 0 13 -6 10 -13z"/>
<path d="M1798 1813 c7 -3 16 -2 19 1 4 3 -2 6 -13 5 -11 0 -14 -3 -6 -6z"/>
<path d="M2100 1795 c-18 -21 -3 -32 16 -13 10 9 12 18 6 22 -5 3 -15 -1 -22
-9z"/>
<path d="M3596 1788 c-14 -65 -10 -95 17 -112 12 -8 76 -22 142 -31 326 -44
424 -58 591 -85 204 -34 233 -36 258 -17 16 12 17 16 3 48 -7 19 -21 40 -30
48 -21 17 -22 2 -2 -25 22 -29 18 -53 -11 -60 -30 -8 -31 -8 -399 49 -159 25
-346 52 -415 61 -145 20 -153 25 -144 98 7 48 -1 67 -10 26z"/>
<path d="M2030 1791 c0 -5 7 -12 16 -15 24 -9 28 -7 14 9 -14 17 -30 20 -30 6z"/>
<path d="M2590 1796 c0 -2 7 -7 16 -10 8 -3 12 -2 9 4 -6 10 -25 14 -25 6z"/>
<path d="M6264 1776 c-8 -22 3 -49 19 -43 6 2 12 14 12 27 0 27 -22 39 -31 16z"/>
<path d="M4945 1770 c-3 -5 -1 -10 4 -10 6 0 11 5 11 10 0 6 -2 10 -4 10 -3 0
-8 -4 -11 -10z"/>
<path d="M1138 1763 c6 -2 18 -2 25 0 6 3 1 5 -13 5 -14 0 -19 -2 -12 -5z"/>
<path d="M1509 1748 c-12 -8 -12 -9 1 -5 8 2 23 0 33 -5 10 -5 21 -8 23 -5 10
10 -44 25 -57 15z"/>
<path d="M5041 1744 c0 -11 3 -14 6 -6 3 7 2 16 -1 19 -3 4 -6 -2 -5 -13z"/>
<path d="M1459 1723 c-13 -15 -12 -15 9 -4 23 12 28 21 13 21 -5 0 -15 -7 -22
-17z"/>
<path d="M1508 1723 c-10 -2 -18 -9 -18 -14 0 -6 8 -5 20 1 11 6 20 13 20 15
0 3 -1 4 -2 4 -2 -1 -11 -3 -20 -6z"/>
<path d="M4020 1697 c0 -54 79 -76 120 -32 19 20 21 27 10 40 -14 17 -40 20
-40 4 0 -6 -8 -8 -17 -5 -67 20 -73 19 -73 -7z"/>
<path d="M4951 1704 c0 -11 3 -14 6 -6 3 7 2 16 -1 19 -3 4 -6 -2 -5 -13z"/>
<path d="M1635 1640 c3 -5 8 -10 11 -10 2 0 4 5 4 10 0 6 -5 10 -11 10 -5 0
-7 -4 -4 -10z"/>
<path d="M4982 1620 c0 -14 2 -19 5 -12 2 6 2 18 0 25 -3 6 -5 1 -5 -13z"/>
<path d="M1240 1585 c-7 -9 -8 -15 -2 -15 5 0 12 7 16 15 3 8 4 15 2 15 -2 0
-9 -7 -16 -15z"/>
<path d="M6080 1590 c0 -5 4 -10 9 -10 6 0 13 5 16 10 3 6 -1 10 -9 10 -9 0
-16 -4 -16 -10z"/>
<path d="M1485 1580 c3 -5 8 -10 11 -10 2 0 4 5 4 10 0 6 -5 10 -11 10 -5 0
-7 -4 -4 -10z"/>
<path d="M1211 1554 c0 -11 3 -14 6 -6 3 7 2 16 -1 19 -3 4 -6 -2 -5 -13z"/>
<path d="M1640 1530 c0 -5 5 -10 10 -10 6 0 10 5 10 10 0 6 -4 10 -10 10 -5 0
-10 -4 -10 -10z"/>
<path d="M1040 1510 c0 -5 5 -10 10 -10 6 0 10 5 10 10 0 6 -4 10 -10 10 -5 0
-10 -4 -10 -10z"/>
<path d="M1236 1451 c-3 -5 5 -8 18 -7 13 0 22 4 19 9 -6 10 -31 9 -37 -2z"/>
<path d="M1308 1453 c6 -2 18 -2 25 0 6 3 1 5 -13 5 -14 0 -19 -2 -12 -5z"/>
<path d="M1110 1421 c0 -11 5 -23 10 -26 6 -3 10 3 10 14 0 11 -4 23 -10 26
-5 3 -10 -3 -10 -14z"/>
<path d="M4850 1410 c0 -5 7 -10 16 -10 8 0 12 5 9 10 -3 6 -10 10 -16 10 -5
0 -9 -4 -9 -10z"/>
<path d="M1062 1390 c0 -14 2 -19 5 -12 2 6 2 18 0 25 -3 6 -5 1 -5 -13z"/>
<path d="M4863 1369 c1 -14 7 -26 14 -26 8 0 9 5 4 11 -4 6 -11 18 -14 26 -3
8 -5 3 -4 -11z"/>
<path d="M4920 1340 c-8 -5 -12 -12 -9 -15 4 -3 12 1 19 10 14 17 11 19 -10 5z"/>
<path d="M4870 1320 c8 -5 20 -10 25 -10 6 0 3 5 -5 10 -8 5 -19 10 -25 10 -5
0 -3 -5 5 -10z"/>
<path d="M4730 1277 c0 -3 23 -19 50 -37 l50 -32 0 -72 c0 -118 -42 -326 -59
-297 -5 7 -12 -70 -16 -171 -14 -310 -14 -302 18 -336 40 -41 33 -67 -16 -66
-22 1 -37 -3 -36 -10 3 -25 -2 -33 -27 -45 -31 -14 -64 -6 -64 16 0 8 -9 17
-20 20 -10 3 -23 17 -29 32 -8 23 -10 24 -10 4 -1 -12 10 -30 24 -41 14 -11
25 -25 25 -31 0 -6 7 -11 16 -11 12 0 14 -3 6 -13 -8 -10 -6 -13 11 -14 17 -2
19 0 7 7 -12 8 -10 10 8 10 14 0 22 -6 23 -17 0 -11 3 -13 6 -5 2 6 11 12 19
12 8 0 14 4 14 9 0 5 -10 7 -22 5 -21 -4 -21 -4 2 8 27 13 41 28 35 38 -2 3
10 6 26 6 19 1 26 -2 22 -10 -3 -6 -2 -8 2 -3 18 16 16 78 -3 105 -33 46 -29
242 5 242 8 0 12 -4 9 -8 -3 -5 1 -9 8 -9 7 0 13 6 13 13 0 7 -4 11 -9 8 -4
-3 -8 0 -8 7 0 7 8 9 21 6 15 -4 19 -2 15 9 -3 8 -2 12 4 9 5 -3 8 5 8 17 -1
13 -1 35 0 51 l2 27 790 0 790 0 0 25 0 25 -785 0 -784 0 8 22 c6 17 4 26 -8
35 -14 10 -14 12 0 18 12 5 14 15 9 53 -4 26 -12 58 -19 72 -10 23 -11 23 -7
3 2 -13 -1 -23 -7 -24 -7 0 -3 -4 7 -8 19 -7 19 -8 -3 -14 -22 -5 -23 -4 -16
31 4 20 10 81 14 134 l6 98 62 -38 c35 -20 65 -44 68 -53 3 -9 11 -16 18 -16
6 -1 30 -4 52 -8 32 -5 45 -3 65 13 l24 19 -30 16 c-24 13 -25 16 -9 17 24 1
57 24 48 33 -9 10 6 8 26 -2 13 -7 18 -6 18 3 0 7 -5 13 -11 13 -6 0 -39 3
-74 7 -67 7 -79 -8 -16 -20 45 -8 33 -19 -26 -24 -10 0 -6 -8 14 -24 19 -16
24 -26 16 -31 -16 -10 -72 2 -96 20 -36 28 -246 166 -260 172 -8 3 -14 3 -14
0z m130 -407 c0 -18 -6 -33 -15 -37 -14 -5 -14 -8 1 -24 15 -17 15 -23 4 -47
-8 -15 -14 -48 -14 -74 -1 -35 -7 -52 -23 -67 -12 -12 -25 -21 -28 -21 -3 0
-5 42 -5 93 0 119 31 206 73 207 4 0 7 -14 7 -30z"/>
<path d="M5100 1245 c0 -8 4 -15 10 -15 5 0 7 7 4 15 -4 8 -8 15 -10 15 -2 0
-4 -7 -4 -15z"/>
<path d="M960 1190 c0 -5 5 -10 10 -10 6 0 10 5 10 10 0 6 -4 10 -10 10 -5 0
-10 -4 -10 -10z"/>
<path d="M1025 1171 c-3 -5 -1 -12 5 -16 5 -3 10 1 10 9 0 18 -6 21 -15 7z"/>
<path d="M6160 1169 c0 -5 5 -7 10 -4 6 3 10 8 10 11 0 2 -4 4 -10 4 -5 0 -10
-5 -10 -11z"/>
<path d="M4870 1150 c12 -8 12 -10 1 -10 -25 0 -4 -11 30 -15 l34 -5 -33 20
c-32 20 -61 29 -32 10z"/>
<path d="M5145 1129 c-4 -6 -4 -13 -1 -16 3 -4 6 -1 6 5 0 6 8 13 18 15 15 4
15 5 0 6 -9 0 -20 -4 -23 -10z"/>
<path d="M6175 1126 c-17 -12 -16 -14 18 -18 44 -5 51 -1 32 18 -17 18 -26 18
-50 0z"/>
<path d="M5180 1110 c-13 -8 -12 -10 3 -10 9 0 17 5 17 10 0 12 -1 12 -20 0z"/>
<path d="M2530 1095 c-18 -22 -7 -28 24 -11 22 11 24 15 11 20 -22 8 -21 8
-35 -9z"/>
<path d="M4862 1075 c0 -16 2 -22 5 -12 2 9 2 23 0 30 -3 6 -5 -1 -5 -18z"/>
<path d="M4955 1092 c19 -9 19 -9 0 -20 -17 -10 -18 -13 -5 -21 10 -7 16 -7
18 0 3 6 9 6 18 -2 9 -8 14 -8 14 -1 0 6 -8 15 -17 21 -10 5 -17 13 -15 18 2
4 -5 9 -15 10 -15 2 -15 2 2 -5z"/>
<path d="M5150 1088 c0 -9 -6 -18 -12 -21 -10 -4 -10 -7 0 -18 10 -11 12 -10
12 4 0 9 6 17 14 17 8 0 18 5 22 12 5 7 3 8 -6 3 -7 -4 -16 -2 -21 6 -7 11 -9
11 -9 -3z"/>
<path d="M5100 1049 c0 -5 5 -7 10 -4 6 3 10 8 10 11 0 2 -4 4 -10 4 -5 0 -10
-5 -10 -11z"/>
<path d="M5167 1053 c-10 -10 -8 -43 2 -43 5 0 11 7 15 15 3 8 1 15 -5 15 -6
0 -7 5 -4 10 7 11 2 13 -8 3z"/>
<path d="M4860 1024 c0 -10 5 -26 10 -34 8 -11 9 -7 4 15 -8 37 -14 45 -14 19z"/>
<path d="M4881 1024 c0 -11 3 -14 6 -6 3 7 2 16 -1 19 -3 4 -6 -2 -5 -13z"/>
<path d="M2030 983 c0 -6 8 -17 18 -24 16 -13 16 -13 2 6 -8 11 -16 22 -17 24
-2 2 -3 0 -3 -6z"/>
<path d="M2160 976 c0 -19 14 -28 34 -20 25 10 19 34 -9 34 -15 0 -25 -6 -25
-14z"/>
<path d="M2070 946 c0 -2 8 -10 18 -17 15 -13 16 -12 3 4 -13 16 -21 21 -21
13z"/>
<path d="M1891 914 c0 -11 3 -14 6 -6 3 7 2 16 -1 19 -3 4 -6 -2 -5 -13z"/>
<path d="M1000 905 c-7 -9 -10 -19 -6 -22 8 -9 38 9 44 25 5 17 -23 15 -38 -3z"/>
<path d="M2128 913 c7 -3 16 -2 19 1 4 3 -2 6 -13 5 -11 0 -14 -3 -6 -6z"/>
<path d="M2198 913 c7 -3 16 -2 19 1 4 3 -2 6 -13 5 -11 0 -14 -3 -6 -6z"/>
<path d="M2209 793 c-8 -9 -9 -14 -2 -10 6 4 13 1 16 -5 3 -7 4 -3 4 10 -1 26
-1 26 -18 5z"/>
<path d="M18 783 c12 -2 32 -2 45 0 12 2 2 4 -23 4 -25 0 -35 -2 -22 -4z"/>
<path d="M893 783 c9 -2 23 -2 30 0 6 3 -1 5 -18 5 -16 0 -22 -2 -12 -5z"/>
<path d="M5020 780 l-25 -8 27 -1 c15 -1 30 4 33 9 7 11 0 11 -35 0z"/>
<path d="M6159 777 c5 -5 26 -7 47 -5 l39 3 -47 5 c-26 3 -43 1 -39 -3z"/>
<path d="M6305 781 c-12 -5 9 -7 50 -4 91 6 105 11 30 12 -33 0 -69 -4 -80 -8z"/>
<path d="M1298 773 c12 -2 32 -2 45 0 12 2 2 4 -23 4 -25 0 -35 -2 -22 -4z"/>
<path d="M1543 773 c15 -2 37 -2 50 0 12 2 0 4 -28 4 -27 0 -38 -2 -22 -4z"/>
<path d="M2263 773 c15 -2 37 -2 50 0 12 2 0 4 -28 4 -27 0 -38 -2 -22 -4z"/>
<path d="M5318 773 c7 -3 16 -2 19 1 4 3 -2 6 -13 5 -11 0 -14 -3 -6 -6z"/>
<path d="M5688 773 c7 -3 16 -2 19 1 4 3 -2 6 -13 5 -11 0 -14 -3 -6 -6z"/>
<path d="M5818 773 c6 -2 18 -2 25 0 6 3 1 5 -13 5 -14 0 -19 -2 -12 -5z"/>
<path d="M5928 773 c6 -2 18 -2 25 0 6 3 1 5 -13 5 -14 0 -19 -2 -12 -5z"/>
<path d="M5978 773 c7 -3 16 -2 19 1 4 3 -2 6 -13 5 -11 0 -14 -3 -6 -6z"/>
<path d="M1195 690 c3 -5 13 -10 21 -10 8 0 12 5 9 10 -3 6 -13 10 -21 10 -8
0 -12 -4 -9 -10z"/>
<path d="M1280 696 c0 -9 37 -12 55 -5 15 6 11 8 -17 8 -21 1 -38 -1 -38 -3z"/>
<path d="M1768 693 c6 -2 18 -2 25 0 6 3 1 5 -13 5 -14 0 -19 -2 -12 -5z"/>
<path d="M2157 693 c-3 -5 32 -7 76 -5 147 5 164 8 45 10 -64 1 -119 -1 -121
-5z"/>
<path d="M2526 691 c-4 -5 0 -12 6 -14 10 -4 10 -6 1 -6 -7 -1 -13 -5 -13 -9
0 -5 14 -7 30 -4 17 2 30 8 30 13 0 5 8 9 18 9 14 0 15 2 2 10 -9 6 -19 5 -29
-3 -11 -9 -15 -9 -18 1 -5 14 -19 16 -27 3z"/>
<path d="M2663 693 c26 -2 68 -2 95 0 26 2 4 3 -48 3 -52 0 -74 -1 -47 -3z"/>
<path d="M2983 693 c15 -2 39 -2 55 0 15 2 2 4 -28 4 -30 0 -43 -2 -27 -4z"/>
<path d="M3390 695 c0 -15 18 -40 24 -34 3 3 -1 14 -9 25 -8 10 -14 15 -15 9z"/>
<path d="M4870 693 c1 -18 18 -35 24 -24 4 6 1 12 -6 13 -7 1 61 5 152 8 l165
6 -167 2 c-93 1 -168 -1 -168 -5z"/>
<path d="M5323 693 c9 -2 23 -2 30 0 6 3 -1 5 -18 5 -16 0 -22 -2 -12 -5z"/>
<path d="M1037 679 c8 -8 16 -8 30 0 16 9 14 10 -11 11 -22 0 -27 -3 -19 -11z"/>
<path d="M3370 680 c0 -8 5 -22 10 -30 9 -13 10 -13 10 0 0 8 -5 22 -10 30 -9
13 -10 13 -10 0z"/>
<path d="M2258 673 c12 -2 32 -2 45 0 12 2 2 4 -23 4 -25 0 -35 -2 -22 -4z"/>
<path d="M2753 673 c20 -2 54 -2 75 0 20 2 3 4 -38 4 -41 0 -58 -2 -37 -4z"/>
<path d="M3058 673 c12 -2 30 -2 40 0 9 3 -1 5 -23 4 -22 0 -30 -2 -17 -4z"/>
<path d="M3248 673 c6 -2 18 -2 25 0 6 3 1 5 -13 5 -14 0 -19 -2 -12 -5z"/>
<path d="M3323 673 c9 -2 23 -2 30 0 6 3 -1 5 -18 5 -16 0 -22 -2 -12 -5z"/>
<path d="M4973 673 c9 -2 25 -2 35 0 9 3 1 5 -18 5 -19 0 -27 -2 -17 -5z"/>
<path d="M5213 673 c20 -2 54 -2 75 0 20 2 3 4 -38 4 -41 0 -58 -2 -37 -4z"/>
<path d="M5578 673 c7 -3 16 -2 19 1 4 3 -2 6 -13 5 -11 0 -14 -3 -6 -6z"/>
<path d="M5858 673 c12 -2 32 -2 45 0 12 2 2 4 -23 4 -25 0 -35 -2 -22 -4z"/>
<path d="M6048 673 c6 -2 18 -2 25 0 6 3 1 5 -13 5 -14 0 -19 -2 -12 -5z"/>
<path d="M6288 673 c29 -2 74 -2 100 0 26 2 2 3 -53 3 -55 0 -76 -1 -47 -3z"/>
<path d="M1213 663 c9 -2 23 -2 30 0 6 3 -1 5 -18 5 -16 0 -22 -2 -12 -5z"/>
<path d="M1298 663 c12 -2 30 -2 40 0 9 3 -1 5 -23 4 -22 0 -30 -2 -17 -4z"/>
<path d="M1403 663 c9 -2 23 -2 30 0 6 3 -1 5 -18 5 -16 0 -22 -2 -12 -5z"/>
<path d="M1568 663 c12 -2 32 -2 45 0 12 2 2 4 -23 4 -25 0 -35 -2 -22 -4z"/>
<path d="M1658 663 c7 -3 16 -2 19 1 4 3 -2 6 -13 5 -11 0 -14 -3 -6 -6z"/>
<path d="M2120 663 c0 -6 8 -17 18 -24 16 -13 16 -13 2 6 -8 11 -16 22 -17 24
-2 2 -3 0 -3 -6z"/>
<path d="M2608 663 c6 -2 18 -2 25 0 6 3 1 5 -13 5 -14 0 -19 -2 -12 -5z"/>
<path d="M1880 653 c0 -5 5 -15 10 -23 7 -12 9 -10 7 8 -1 19 -17 33 -17 15z"/>
<path d="M2328 653 c7 -3 16 -2 19 1 4 3 -2 6 -13 5 -11 0 -14 -3 -6 -6z"/>
<path d="M2788 653 c6 -2 18 -2 25 0 6 3 1 5 -13 5 -14 0 -19 -2 -12 -5z"/>
<path d="M3068 653 c17 -2 47 -2 65 0 17 2 3 4 -33 4 -36 0 -50 -2 -32 -4z"/>
<path d="M4860 639 c0 -5 5 -7 10 -4 6 3 10 8 10 11 0 2 -4 4 -10 4 -5 0 -10
-5 -10 -11z"/>
<path d="M5848 643 c7 -3 16 -2 19 1 4 3 -2 6 -13 5 -11 0 -14 -3 -6 -6z"/>
<path d="M2111 624 c0 -11 3 -14 6 -6 3 7 2 16 -1 19 -3 4 -6 -2 -5 -13z"/>
<path d="M2359 638 c-6 -12 -5 -46 2 -43 4 3 7 14 6 25 -1 18 -5 25 -8 18z"/>
<path d="M2781 624 c0 -11 3 -14 6 -6 3 7 2 16 -1 19 -3 4 -6 -2 -5 -13z"/>
<path d="M2718 596 c4 -37 -12 -55 -61 -65 -31 -7 -32 -9 -29 -50 3 -28 0 -41
-6 -37 -6 3 -14 1 -18 -5 -4 -8 -3 -9 4 -5 7 4 12 3 12 -3 0 -17 -33 -28 -67
-24 -37 5 -45 -11 -10 -22 21 -7 21 -8 -8 -15 l-30 -8 28 -1 c30 -1 38 -21 8
-21 -11 0 -22 -3 -24 -7 -3 -5 8 -8 23 -8 15 0 26 3 23 8 -2 4 4 7 13 7 16 0
16 1 -1 14 -18 13 -17 15 20 31 22 10 46 18 54 19 8 1 17 8 19 16 5 13 3 13
-13 0 -17 -14 -18 -13 -12 3 4 10 7 30 7 43 0 16 6 24 18 25 11 1 9 4 -8 9
-23 7 -23 8 -3 9 12 1 30 4 40 7 13 4 14 3 5 -4 -11 -7 -11 -10 1 -15 11 -4
15 0 12 13 -2 10 3 24 11 31 18 14 18 63 1 77 -10 9 -12 4 -9 -22z"/>
<path d="M4864 595 c-3 -14 -11 -22 -17 -18 -6 3 -7 1 -3 -5 11 -19 26 -14 26
9 0 11 4 17 10 14 6 -3 7 1 4 9 -8 22 -13 20 -20 -9z"/>
<path d="M1870 602 c0 -5 -12 -12 -27 -15 -69 -14 -106 -93 -63 -132 24 -22
39 -13 16 10 -9 9 -16 25 -16 35 0 17 51 69 71 71 5 1 14 2 21 3 15 1 22 23 9
31 -6 3 -11 2 -11 -3z"/>
<path d="M3440 581 c0 -6 4 -13 10 -16 6 -3 7 1 4 9 -7 18 -14 21 -14 7z"/>
<path d="M1058 563 c6 -2 18 -2 25 0 6 3 1 5 -13 5 -14 0 -19 -2 -12 -5z"/>
<path d="M2742 540 c-8 -13 -8 -20 -2 -20 6 0 13 7 17 15 9 24 -1 27 -15 5z"/>
<path d="M2777 539 c-4 -16 -3 -18 9 -8 7 6 11 15 8 20 -8 13 -11 11 -17 -12z"/>
<path d="M2210 540 c0 -5 5 -10 10 -10 6 0 10 5 10 10 0 6 -4 10 -10 10 -5 0
-10 -4 -10 -10z"/>
<path d="M2740 500 c-13 -8 -13 -10 2 -10 9 0 25 -3 35 -7 17 -6 17 -6 1 10
-19 20 -18 20 -38 7z"/>
<path d="M2200 490 c0 -5 5 -10 10 -10 6 0 10 5 10 10 0 6 -4 10 -10 10 -5 0
-10 -4 -10 -10z"/>
<path d="M4960 490 c0 -5 5 -10 10 -10 6 0 10 5 10 10 0 6 -4 10 -10 10 -5 0
-10 -4 -10 -10z"/>
<path d="M2684 476 c-3 -8 -4 -21 -1 -28 3 -7 6 -2 7 12 1 24 1 24 15 6 8 -11
15 -15 15 -9 0 6 -7 16 -15 23 -12 10 -16 9 -21 -4z"/>
<path d="M3732 464 c-1 -15 -7 -33 -13 -40 -14 -18 -2 -18 15 -1 7 7 11 18 8
25 -2 7 2 19 8 27 10 12 10 15 -2 15 -8 0 -15 -11 -16 -26z"/>
<path d="M2350 469 c0 -11 57 -21 80 -14 12 4 26 0 35 -9 14 -13 11 -16 -25
-27 -22 -7 -38 -14 -36 -17 3 -2 22 2 42 8 28 10 39 10 42 1 2 -6 8 -11 13
-11 15 0 10 26 -10 51 -16 20 -28 24 -80 24 -34 1 -61 -2 -61 -6z"/>
<path d="M3455 471 c-3 -5 0 -13 6 -17 7 -4 9 -3 5 4 -3 5 0 13 6 15 9 4 10 6
1 6 -6 1 -14 -3 -18 -8z"/>
<path d="M3785 460 c-3 -5 1 -10 10 -10 9 0 13 5 10 10 -3 6 -8 10 -10 10 -2
0 -7 -4 -10 -10z"/>
<path d="M5260 460 c0 -5 5 -10 10 -10 6 0 10 5 10 10 0 6 -4 10 -10 10 -5 0
-10 -4 -10 -10z"/>
<path d="M2200 450 c0 -5 5 -10 10 -10 6 0 10 5 10 10 0 6 -4 10 -10 10 -5 0
-10 -4 -10 -10z"/>
<path d="M3830 450 c-12 -8 -12 -10 2 -15 9 -4 27 -5 40 -2 20 4 20 4 -5 6
-16 0 -26 5 -22 11 8 12 4 12 -15 0z"/>
<path d="M1827 444 c-13 -13 -7 -24 11 -24 15 0 18 -7 17 -32 -1 -18 -5 -42
-9 -53 -5 -15 -4 -14 7 3 l14 24 18 -28 c16 -24 17 -45 13 -181 -4 -143 -4
-153 14 -153 16 0 18 9 18 93 0 50 4 87 8 80 4 -6 6 26 4 70 -2 47 1 77 5 70
7 -9 16 -8 40 6 19 12 35 16 42 10 7 -6 8 -5 2 2 -6 7 -3 22 8 40 17 30 36 38
44 17 2 -7 7 -10 11 -7 13 12 -6 39 -28 39 -21 0 -59 -33 -49 -43 7 -7 -37
-34 -68 -42 -39 -10 -71 21 -72 70 -2 32 -6 41 -22 43 -12 2 -24 0 -28 -4z"/>
<path d="M3700 439 c0 -5 5 -7 10 -4 6 3 10 8 10 11 0 2 -4 4 -10 4 -5 0 -10
-5 -10 -11z"/>
<path d="M2373 415 c0 -8 4 -12 9 -9 4 3 8 9 8 15 0 5 -4 9 -8 9 -5 0 -9 -7
-9 -15z"/>
<path d="M4615 420 c3 -5 8 -10 11 -10 2 0 4 5 4 10 0 6 -5 10 -11 10 -5 0 -7
-4 -4 -10z"/>
<path d="M3928 408 c5 -5 16 -8 23 -6 8 3 3 7 -10 11 -17 4 -21 3 -13 -5z"/>
<path d="M4468 413 c7 -3 16 -2 19 1 4 3 -2 6 -13 5 -11 0 -14 -3 -6 -6z"/>
<path d="M4503 345 c0 -38 2 -53 4 -32 2 20 2 52 0 70 -2 17 -4 1 -4 -38z"/>
<path d="M1166 385 c4 -8 10 -15 15 -15 5 0 9 7 9 15 0 8 -7 15 -15 15 -9 0
-12 -6 -9 -15z"/>
<path d="M4573 385 c0 -8 4 -12 9 -9 5 3 6 10 3 15 -9 13 -12 11 -12 -6z"/>
<path d="M4786 392 c-2 -4 -1 -14 4 -22 7 -11 9 -9 7 8 -1 24 -3 26 -11 14z"/>
<path d="M2060 381 c0 -6 4 -13 10 -16 6 -3 7 1 4 9 -7 18 -14 21 -14 7z"/>
<path d="M2598 363 c7 -3 16 -2 19 1 4 3 -2 6 -13 5 -11 0 -14 -3 -6 -6z"/>
<path d="M6077 340 c-4 -17 -2 -18 14 -9 22 11 25 29 5 29 -7 0 -16 -9 -19
-20z"/>
<path d="M1191 334 c0 -11 3 -14 6 -6 3 7 2 16 -1 19 -3 4 -6 -2 -5 -13z"/>
<path d="M1216 335 c-3 -9 0 -15 9 -15 8 0 15 7 15 15 0 8 -4 15 -9 15 -5 0
-11 -7 -15 -15z"/>
<path d="M2051 334 c0 -11 3 -14 6 -6 3 7 2 16 -1 19 -3 4 -6 -2 -5 -13z"/>
<path d="M2608 343 c6 -2 18 -2 25 0 6 3 1 5 -13 5 -14 0 -19 -2 -12 -5z"/>
<path d="M3721 334 c0 -11 3 -14 6 -6 3 7 2 16 -1 19 -3 4 -6 -2 -5 -13z"/>
<path d="M3756 333 c-6 -14 -5 -15 5 -6 7 7 10 15 7 18 -3 3 -9 -2 -12 -12z"/>
<path d="M1025 330 c-3 -5 -1 -10 4 -10 6 0 11 5 11 10 0 6 -2 10 -4 10 -3 0
-8 -4 -11 -10z"/>
<path d="M3440 329 c0 -5 5 -7 10 -4 6 3 10 8 10 11 0 2 -4 4 -10 4 -5 0 -10
-5 -10 -11z"/>
<path d="M4836 275 c8 -37 14 -45 14 -19 0 10 -5 26 -10 34 -8 11 -9 7 -4 -15z"/>
<path d="M3548 273 c6 -2 18 -2 25 0 6 3 1 5 -13 5 -14 0 -19 -2 -12 -5z"/>
<path d="M4491 263 c-1 -6 -4 -20 -7 -30 -5 -17 -5 -17 6 0 6 10 9 23 6 30 -3
9 -5 9 -5 0z"/>
<path d="M1867 247 c-3 -8 -2 -38 3 -68 l8 -54 -2 67 c0 38 -2 68 -2 68 -1 0
-4 -6 -7 -13z"/>
<path d="M3630 253 c0 -5 15 -9 33 -10 26 -1 28 0 12 7 -26 11 -45 12 -45 3z"/>
<path d="M151 224 c0 -11 3 -14 6 -6 3 7 2 16 -1 19 -3 4 -6 -2 -5 -13z"/>
<path d="M945 230 c3 -5 8 -10 11 -10 2 0 4 5 4 10 0 6 -5 10 -11 10 -5 0 -7
-4 -4 -10z"/>
<path d="M5150 230 c0 -5 7 -10 15 -10 8 0 15 5 15 10 0 6 -7 10 -15 10 -8 0
-15 -4 -15 -10z"/>
<path d="M4502 205 c0 -16 2 -22 5 -12 2 9 2 23 0 30 -3 6 -5 -1 -5 -18z"/>
<path d="M4601 194 c0 -11 3 -14 6 -6 3 7 2 16 -1 19 -3 4 -6 -2 -5 -13z"/>
<path d="M4765 190 c3 -5 8 -10 11 -10 2 0 4 5 4 10 0 6 -5 10 -11 10 -5 0 -7
-4 -4 -10z"/>
<path d="M4775 170 c-16 -7 -17 -9 -3 -9 9 -1 20 4 23 9 7 11 7 11 -20 0z"/>
<path d="M4511 144 c0 -11 3 -14 6 -6 3 7 2 16 -1 19 -3 4 -6 -2 -5 -13z"/>
<path d="M4581 134 c0 -11 3 -14 6 -6 3 7 2 16 -1 19 -3 4 -6 -2 -5 -13z"/>
<path d="M4100 115 c0 -8 5 -15 10 -15 6 0 10 7 10 15 0 8 -4 15 -10 15 -5 0
-10 -7 -10 -15z"/>
<path d="M2631 34 c0 -11 3 -14 6 -6 3 7 2 16 -1 19 -3 4 -6 -2 -5 -13z"/>
<path d="M1942 20 c0 -14 2 -19 5 -12 2 6 2 18 0 25 -3 6 -5 1 -5 -13z"/>
<path d="M4521 24 c0 -11 3 -14 6 -6 3 7 2 16 -1 19 -3 4 -6 -2 -5 -13z"/>
<path d="M2530 10 c0 -5 9 -10 21 -10 11 0 17 4 14 10 -8 13 -35 13 -35 0z"/>
</g>
</svg>
