<!-- <?xml version="1.0" standalone="no"?>
<!DOCTYPE svg PUBLIC "-//W3C//DTD SVG 20010904//EN"
 "http://www.w3.org/TR/2001/REC-SVG-20010904/DTD/svg10.dtd"> -->
<svg version="1.0" xmlns="http://www.w3.org/2000/svg"
 width="1400.000000pt" height="1050.000000pt" viewBox="0 0 1400.000000 1050.000000"
 preserveAspectRatio="xMidYMid meet">

<g transform="translate(0.000000,1050.000000) scale(0.100000,-0.100000)"
fill="#000000" stroke="none">
<path d="M587 10433 c-8 -87 -53 -527 -72 -703 -17 -150 -30 -276 -75 -705 -6
-55 -27 -248 -46 -430 -19 -181 -41 -391 -49 -465 -17 -170 -52 -488 -65 -600
-5 -47 -15 -134 -20 -195 -6 -60 -15 -144 -20 -185 -5 -41 -17 -145 -25 -230
-8 -85 -26 -261 -39 -390 -57 -546 -93 -894 -130 -1275 -15 -143 -31 -293 -36
-333 -9 -65 -13 -808 -4 -772 4 15 15 119 59 555 14 132 29 283 35 335 5 52
19 187 30 300 11 113 30 288 41 390 10 102 26 250 34 330 9 80 22 208 31 285
40 367 105 995 184 1775 22 217 45 433 50 480 6 47 17 159 25 250 8 91 24 253
35 360 11 107 25 238 30 290 11 114 52 512 80 773 26 244 27 227 -14 227 l-33
0 -6 -67z"/>
<path d="M1426 10428 c-3 -40 -8 -154 -11 -253 -9 -305 -17 -465 -28 -555 -4
-30 -9 -118 -13 -195 -3 -77 -8 -178 -11 -225 -3 -47 -6 -134 -9 -193 -2 -59
-6 -111 -8 -116 -3 -4 -8 -89 -10 -187 -3 -98 -8 -209 -12 -246 -7 -77 1 -127
18 -110 8 8 11 55 10 136 -1 73 2 128 8 131 6 3 10 15 10 26 0 10 6 19 13 19
9 0 9 2 0 8 -9 6 -10 30 -2 102 6 52 12 115 13 140 2 25 9 104 15 175 6 72 13
202 15 290 3 88 8 185 12 217 4 34 2 69 -5 89 -7 21 -8 36 -1 44 5 6 10 69 11
139 2 100 -1 130 -12 136 -11 7 -11 10 2 15 11 4 16 20 17 53 1 26 4 98 8 160
5 80 3 112 -5 112 -6 0 -11 17 -11 40 0 29 4 40 15 40 9 0 15 9 15 24 0 13 3
31 6 40 5 12 0 16 -19 16 -24 0 -26 -3 -31 -72z"/>
<path d="M3910 10451 c0 -28 -5 -53 -11 -57 -6 -3 -32 5 -57 19 -26 14 -61 28
-79 32 -37 7 -134 -15 -192 -44 -54 -28 -177 -155 -210 -216 -23 -45 -26 -61
-26 -150 1 -87 6 -114 37 -210 52 -158 100 -333 96 -346 -7 -20 -138 120 -224
241 -21 30 -68 89 -104 132 -95 111 -171 205 -207 256 -42 58 -136 130 -180
138 -45 8 -173 -2 -238 -20 -178 -48 -335 -179 -428 -354 -57 -108 -60 -155
-21 -268 27 -80 123 -273 180 -361 19 -31 46 -79 59 -107 13 -28 53 -91 89
-141 81 -112 116 -172 116 -198 0 -17 -5 -19 -38 -13 -20 3 -86 9 -147 13 -76
4 -131 13 -180 30 -149 51 -310 93 -358 93 -72 0 -184 -44 -237 -92 -36 -33
-95 -107 -116 -148 -16 -29 -19 -57 -19 -155 0 -116 1 -122 33 -187 35 -70 66
-107 104 -125 130 -60 210 -94 248 -103 25 -6 59 -20 76 -29 17 -10 48 -24 70
-31 39 -13 112 -46 271 -121 45 -21 86 -39 92 -39 6 0 103 -45 217 -100 114
-55 209 -100 211 -100 13 0 332 -165 361 -187 60 -45 185 -258 263 -445 92
-226 149 -380 149 -407 0 -14 -12 -53 -26 -86 -63 -146 -155 -455 -188 -630
-35 -193 -58 -786 -45 -1189 5 -148 11 -276 13 -285 3 -9 12 -95 21 -191 8
-96 22 -213 30 -260 8 -47 19 -125 25 -175 6 -49 22 -132 36 -183 14 -51 23
-100 20 -110 -4 -10 -23 -36 -43 -58 -59 -63 -132 -163 -149 -202 -30 -71 16
-292 87 -414 53 -91 162 -199 242 -240 33 -16 66 -36 74 -43 7 -7 22 -48 33
-92 12 -43 44 -123 71 -178 27 -55 49 -105 49 -112 0 -12 -35 -127 -76 -248
-52 -156 -51 -290 4 -369 31 -45 113 -119 191 -174 99 -68 90 2 92 -738 1
-358 -1 -656 -5 -663 -5 -8 8 -11 41 -11 l48 0 -5 127 c-3 71 -7 361 -8 646
-3 429 -1 518 10 522 8 3 33 -1 56 -9 58 -21 147 -32 138 -18 -3 5 -30 13 -59
17 -133 18 -419 212 -483 328 -24 45 -28 63 -28 127 1 110 75 369 164 570 15
36 40 106 55 155 32 110 45 145 55 145 4 0 24 -20 44 -44 54 -66 221 -234 306
-307 124 -107 428 -319 543 -378 15 -8 27 -19 27 -24 0 -25 -154 -270 -233
-370 -75 -95 -161 -177 -203 -194 -45 -19 -62 -40 -21 -27 63 19 97 40 157 99
39 37 79 66 96 70 116 25 131 29 209 65 85 39 148 60 180 60 17 0 36 5 42 11
6 6 28 9 50 6 39 -5 294 -89 327 -108 11 -6 51 -20 90 -30 39 -11 100 -30 136
-43 36 -13 92 -29 125 -36 33 -7 97 -21 141 -31 45 -11 95 -19 110 -19 16 0
58 -7 94 -16 53 -12 137 -15 448 -15 214 0 416 4 455 10 40 6 126 18 193 26
67 9 136 20 155 25 19 6 48 10 65 10 17 0 62 11 99 25 37 13 111 34 164 46 62
14 139 43 216 79 66 32 136 61 155 65 19 4 48 14 63 22 58 29 82 -2 98 -131 6
-45 16 -130 24 -191 8 -60 19 -157 25 -215 6 -58 13 -123 16 -145 3 -22 20
-177 40 -345 19 -168 39 -345 45 -395 6 -49 9 -107 7 -127 l-4 -38 53 0 52 0
-9 27 c-9 28 -12 51 -55 413 -13 113 -47 387 -75 609 -54 441 -58 489 -35 497
28 11 255 -71 398 -142 51 -27 61 -23 22 8 -27 21 -213 266 -248 326 -12 21
-41 61 -65 91 -25 31 -42 62 -40 74 2 11 25 31 58 49 100 55 244 138 296 171
136 86 424 350 526 483 68 88 148 198 152 209 8 24 20 -11 32 -97 8 -51 23
-156 34 -233 11 -77 31 -244 45 -371 31 -289 28 -317 -58 -427 -24 -31 -62
-71 -83 -88 -78 -62 -253 -169 -277 -169 -9 0 -19 -4 -22 -10 -3 -5 -3 -10 2
-10 14 0 97 31 108 40 5 4 33 20 60 36 135 75 238 172 287 272 l31 63 -6 142
c-4 78 -14 187 -22 242 -18 127 -18 184 0 215 83 144 163 421 181 634 l7 78
56 -5 c31 -2 129 -19 219 -36 229 -44 456 -73 528 -68 88 7 145 36 229 120 60
60 82 90 119 169 69 145 90 231 91 364 l0 112 -39 57 c-43 61 -79 94 -196 174
-157 108 -191 128 -420 244 -260 131 -340 180 -340 205 0 9 7 86 15 170 28
290 25 794 -5 998 -17 114 -67 345 -97 444 -25 84 -92 259 -120 313 -12 25
-12 34 3 80 9 29 23 62 31 75 8 13 30 59 49 104 19 44 43 92 53 107 11 15 55
96 98 181 107 208 169 319 235 415 30 44 66 102 82 128 25 43 37 53 129 97
253 123 607 255 626 234 8 -8 42 -153 167 -704 19 -85 48 -211 64 -280 16 -69
52 -226 80 -350 28 -124 57 -252 65 -285 8 -33 21 -91 30 -130 17 -76 21 -96
59 -260 46 -198 115 -502 141 -622 25 -115 33 -150 74 -323 22 -95 124 -536
237 -1030 41 -179 83 -363 94 -410 21 -92 55 -243 119 -525 23 -99 46 -198 51
-220 23 -98 44 -190 175 -770 36 -159 76 -337 90 -395 14 -58 42 -184 64 -280
21 -96 65 -287 96 -425 182 -797 177 -775 171 -792 -4 -10 9 -13 54 -13 l60 0
-11 26 c-5 15 -19 68 -30 118 -12 50 -34 147 -50 216 -16 69 -40 175 -54 235
-34 151 -92 407 -109 480 -8 33 -33 141 -56 240 -23 99 -48 207 -56 240 -7 33
-41 179 -74 325 -33 146 -69 301 -80 345 -25 104 -37 154 -200 860 -105 451
-112 481 -139 595 -11 47 -32 137 -46 200 -14 63 -41 178 -59 255 -19 77 -44
185 -56 240 -12 55 -37 163 -55 240 -19 77 -73 311 -121 520 -47 209 -97 425
-109 480 -13 55 -42 181 -65 280 -23 99 -50 216 -60 260 -11 44 -63 267 -115
495 -53 228 -134 580 -180 782 -47 202 -85 379 -85 392 0 31 8 35 240 113 91
31 190 69 220 84 30 15 80 36 110 47 273 100 418 166 482 222 103 90 147 268
98 402 -30 82 -110 181 -175 217 -66 37 -187 47 -403 31 -86 -7 -170 -10 -187
-8 l-29 3 44 50 c25 28 61 71 80 95 19 24 64 80 100 124 36 45 99 126 140 181
81 109 92 122 131 169 48 56 114 160 137 213 57 133 5 309 -145 492 -23 28
-55 62 -70 75 -68 58 -269 95 -343 64 -47 -20 -153 -102 -275 -212 -165 -149
-239 -213 -350 -305 -58 -47 -131 -107 -163 -133 -64 -53 -79 -58 -87 -25 -34
140 -79 340 -95 412 -10 50 -33 145 -49 212 -17 66 -31 128 -31 137 0 11 -9
16 -31 16 -27 0 -30 -3 -26 -22 4 -13 9 -42 13 -65 8 -54 -4 -55 -62 -8 -53
44 -102 65 -149 65 -45 0 -46 -16 -1 -24 45 -9 146 -75 206 -135 38 -38 53
-63 69 -116 12 -37 21 -75 21 -84 0 -25 -112 -260 -156 -327 -49 -75 -59 -92
-78 -129 -29 -59 -66 -146 -66 -156 0 -6 -6 -17 -14 -24 -11 -12 -17 -7 -36
31 -13 24 -26 44 -30 44 -4 0 -22 10 -41 23 -113 77 -347 78 -463 2 -36 -24
-64 -74 -76 -133 -5 -28 -16 -149 -25 -269 -14 -197 -27 -306 -41 -356 -3 -9
-29 -35 -57 -56 -139 -102 -291 -211 -377 -269 -51 -36 -143 -105 -202 -153
-59 -49 -112 -89 -118 -89 -5 0 -33 23 -62 51 -67 64 -127 104 -140 91 -5 -5
23 -36 76 -81 48 -40 86 -78 86 -85 0 -14 -135 -105 -280 -189 -47 -27 -109
-65 -137 -84 -29 -19 -77 -47 -105 -62 -29 -16 -88 -49 -131 -75 -42 -25 -93
-52 -112 -60 -34 -15 -44 -29 -26 -40 9 -6 139 59 226 112 28 17 82 48 120 69
219 121 477 293 665 443 52 42 146 112 208 156 61 43 141 99 176 124 94 67
392 283 463 338 35 26 113 84 175 129 228 166 432 320 521 394 51 41 119 95
152 120 34 24 67 50 75 57 8 7 44 35 80 64 36 28 79 62 96 77 90 75 133 110
188 155 34 26 122 104 198 172 75 68 171 149 215 180 l78 56 90 -4 c123 -7
177 -31 257 -117 133 -141 204 -353 152 -454 -34 -66 -216 -324 -245 -347 -3
-3 -17 -23 -32 -46 -36 -58 -252 -325 -334 -413 l-69 -75 -140 -12 c-165 -15
-325 -17 -374 -5 -84 21 -100 22 -100 1 0 -10 8 -21 18 -24 45 -13 188 -26
240 -22 31 3 104 8 162 11 58 3 180 11 271 19 91 8 253 18 360 22 l194 6 55
-29 c88 -45 180 -182 180 -269 0 -75 -68 -228 -120 -271 -17 -14 -183 -95
-295 -144 -37 -16 -190 -71 -220 -78 -41 -11 -148 -48 -215 -76 -138 -56 -167
-67 -200 -76 -33 -9 -67 -22 -100 -39 -9 -4 -30 -11 -49 -15 -18 -4 -44 -13
-59 -21 -15 -8 -35 -14 -44 -14 -9 0 -19 -4 -23 -9 -3 -5 -27 -17 -53 -26 -61
-22 -119 -44 -159 -61 -17 -8 -34 -14 -37 -14 -3 0 -35 -13 -71 -30 -36 -16
-74 -30 -85 -30 -11 0 -20 -4 -20 -10 0 -5 -6 -10 -12 -10 -7 0 -26 -7 -42
-15 -27 -14 -31 -14 -38 0 -5 8 -15 15 -22 15 -20 0 -92 -75 -107 -112 -12
-31 -92 -147 -108 -158 -4 -3 -27 -43 -52 -89 -24 -46 -50 -86 -56 -88 -7 -3
-13 -11 -13 -17 0 -17 -57 -133 -67 -137 -7 -3 -39 -71 -72 -154 -5 -11 -42
-90 -84 -175 -95 -197 -157 -342 -192 -450 -15 -47 -38 -111 -51 -142 -26 -61
-30 -88 -14 -88 14 0 35 44 79 166 22 58 42 109 46 112 11 11 30 -23 68 -120
73 -191 143 -482 168 -703 22 -200 11 -868 -17 -1008 -3 -15 -12 -27 -20 -27
-27 0 -267 128 -331 177 -40 31 -56 23 -22 -11 27 -26 160 -111 224 -143 62
-30 158 -84 175 -98 8 -7 78 -45 155 -84 296 -151 471 -249 530 -296 22 -17
67 -50 100 -73 95 -65 152 -123 164 -168 16 -63 4 -216 -25 -292 -13 -35 -24
-72 -24 -82 0 -10 -6 -23 -14 -29 -7 -6 -16 -24 -19 -40 -3 -16 -13 -36 -22
-44 -8 -9 -15 -20 -15 -26 0 -22 -50 -89 -82 -112 -18 -12 -44 -33 -57 -46
-14 -13 -30 -22 -37 -19 -6 2 -23 -2 -37 -9 -51 -26 -102 -26 -283 0 -98 14
-215 33 -259 41 -119 23 -213 41 -280 54 -33 6 -94 18 -135 27 -41 9 -86 17
-100 19 -14 1 -61 10 -105 18 -44 9 -129 23 -190 31 -60 9 -132 20 -160 25
-178 33 -178 33 -192 15 -18 -26 0 -52 46 -65 21 -5 85 -15 142 -20 57 -6 111
-13 119 -16 8 -3 49 -8 90 -10 83 -6 270 -41 283 -53 10 -10 -23 -79 -50 -103
-10 -9 -72 -42 -138 -73 -66 -31 -129 -61 -139 -67 -10 -5 -44 -19 -75 -30
-31 -11 -76 -27 -99 -35 -24 -9 -85 -37 -135 -63 -103 -53 -112 -64 -162 -214
-36 -108 -81 -199 -114 -229 -30 -29 -125 -52 -276 -67 -55 -6 -122 -13 -148
-16 -48 -7 -97 8 -97 28 0 5 -18 41 -41 79 -22 38 -39 79 -37 91 4 25 28 34
211 84 169 45 227 70 227 98 -1 33 -45 158 -75 212 -16 27 -45 78 -64 113 -41
74 -25 67 -296 127 -88 19 -182 41 -209 49 -27 8 -63 15 -79 15 -31 0 -171
-53 -410 -156 -223 -96 -221 -95 -261 -166 -53 -96 -146 -308 -146 -335 0 -15
13 -33 42 -53 22 -16 45 -30 50 -30 16 0 78 -45 78 -57 0 -10 -91 -73 -106
-73 -10 0 -163 -73 -319 -152 -49 -25 -114 -55 -142 -67 -29 -12 -76 -30 -103
-41 -37 -15 -55 -18 -69 -10 -11 5 -51 21 -90 35 -39 14 -117 48 -173 76 -224
108 -328 174 -328 209 0 16 57 107 150 240 25 35 30 52 27 77 -9 50 -80 204
-126 269 -23 32 -53 76 -66 96 -14 21 -35 44 -48 52 -26 18 -145 32 -333 42
l-132 7 -15 -29 c-8 -16 -80 -90 -159 -165 -78 -75 -201 -193 -273 -262 -136
-133 -154 -142 -206 -114 -13 7 -67 38 -119 69 -52 31 -126 73 -164 95 -38 21
-71 44 -73 50 -3 7 18 23 49 37 123 56 286 126 294 126 5 0 41 20 79 43 39 24
88 50 110 57 22 7 56 25 75 39 19 14 51 34 70 45 35 19 141 87 150 96 3 3 18
14 33 23 41 27 34 63 -11 60 -19 0 -43 -10 -55 -20 -20 -18 -84 -59 -320 -205
-51 -31 -119 -70 -152 -86 -115 -57 -172 -82 -185 -82 -6 0 -50 -18 -97 -40
-47 -22 -92 -40 -99 -40 -8 0 -14 -4 -14 -10 0 -5 -9 -10 -20 -10 -11 0 -28
-4 -38 -9 -77 -40 -237 -102 -277 -108 -16 -2 -41 -8 -55 -13 -14 -5 -47 -12
-75 -15 -27 -3 -67 -10 -88 -16 -21 -6 -48 -7 -60 -3 -12 5 -25 7 -29 6 -5 -1
-8 2 -8 8 0 5 -8 10 -17 10 -10 0 -34 10 -53 21 -41 25 -160 148 -160 165 0 7
-4 14 -8 16 -14 5 -79 148 -96 208 -44 162 -42 186 30 283 94 128 467 509 763
777 52 47 109 101 127 120 34 35 43 60 24 60 -12 0 -222 -194 -415 -381 -268
-261 -340 -329 -349 -326 -14 5 -45 134 -61 257 -8 63 -21 162 -29 220 -8 58
-17 134 -21 170 -3 36 -10 101 -15 145 -22 186 -30 549 -20 928 14 498 29 624
105 882 20 66 45 152 57 190 23 81 67 185 78 185 10 0 63 -163 84 -260 9 -41
31 -149 49 -239 19 -98 37 -166 45 -169 18 -6 15 76 -7 166 -10 43 -22 102
-26 132 -8 70 -48 229 -79 317 -14 37 -43 131 -66 208 -38 128 -54 174 -81
230 -5 11 -11 29 -13 40 -2 12 -16 42 -30 67 -14 26 -26 53 -26 60 0 12 -79
178 -90 188 -3 3 -21 37 -40 75 -19 39 -40 74 -47 78 -7 4 -13 13 -13 18 0 13
-55 63 -88 80 -15 8 -29 16 -32 19 -3 3 -36 21 -75 40 -38 19 -81 41 -94 49
-13 9 -33 17 -44 18 -12 2 -28 10 -37 18 -9 8 -21 15 -26 15 -5 0 -40 15 -79
34 -140 69 -179 86 -192 86 -7 0 -13 5 -13 10 0 6 -5 10 -12 10 -6 0 -46 17
-87 37 -42 20 -85 40 -96 44 -11 4 -60 26 -110 49 -91 43 -104 48 -163 70 -17
7 -32 17 -32 22 0 5 -5 6 -10 3 -5 -3 -10 -2 -10 3 0 5 -15 12 -32 16 -18 4
-51 15 -73 25 -22 9 -58 23 -80 30 -34 11 -105 43 -235 104 -37 18 -62 52 -94
131 -25 64 -28 79 -23 153 6 97 28 150 89 212 24 23 72 57 108 74 54 26 76 31
140 32 78 0 87 -2 280 -66 89 -29 148 -41 260 -53 148 -16 362 -17 376 -3 13
13 -16 25 -79 32 -60 7 -97 30 -97 60 0 16 -30 69 -120 209 -227 358 -335 578
-334 686 0 47 6 65 43 125 42 68 118 167 134 173 4 2 31 22 60 43 108 82 224
122 357 122 121 0 152 -21 295 -199 48 -60 102 -125 120 -144 18 -19 70 -84
115 -145 79 -105 195 -242 325 -385 33 -36 137 -155 230 -265 94 -110 220
-253 281 -320 188 -203 665 -668 739 -720 39 -27 131 -94 206 -150 74 -56 158
-115 185 -130 27 -16 83 -51 124 -79 149 -99 323 -191 346 -182 28 11 11 26
-92 81 -58 31 -149 84 -202 119 -53 34 -137 89 -187 120 -49 32 -119 82 -155
111 -36 28 -108 83 -160 120 -109 78 -260 221 -260 246 0 9 32 45 70 79 64 57
86 90 60 90 -12 0 -140 -99 -140 -109 0 -3 -9 -12 -19 -18 -17 -11 -33 2 -147
113 l-128 125 2 87 c1 48 7 144 12 213 15 208 -8 335 -77 414 -27 31 -103 81
-146 94 -51 17 -166 16 -209 -2 -37 -15 -100 -73 -134 -121 l-21 -29 -41 38
c-23 20 -42 43 -42 49 0 7 -11 22 -25 34 -27 24 -48 68 -59 125 -4 20 -11 37
-15 37 -10 0 -50 119 -66 200 -2 8 -8 28 -14 43 -6 15 -10 31 -9 35 1 4 -3 17
-11 30 -7 13 -11 31 -9 40 2 9 -2 22 -8 27 -17 15 -57 191 -50 220 13 51 92
167 146 214 30 27 80 61 109 76 47 24 63 27 125 23 65 -3 77 -8 143 -51 67
-45 253 -219 253 -237 0 -15 -59 -146 -114 -253 -59 -115 -63 -127 -43 -127 6
0 25 24 40 53 82 151 121 228 144 282 49 119 115 249 140 279 38 46 61 55 141
56 94 0 147 -24 183 -82 49 -80 54 -158 34 -563 -18 -349 -17 -566 1 -572 14
-5 26 82 26 183 0 40 3 85 8 101 8 27 9 27 15 6 4 -13 11 -20 16 -17 5 3 12
-3 16 -13 4 -10 9 -20 13 -23 3 -3 29 -36 57 -75 28 -38 60 -77 70 -86 10 -9
59 -60 108 -114 50 -54 114 -123 144 -154 78 -81 151 -170 151 -185 0 -7 -39
-30 -86 -51 -87 -39 -134 -69 -134 -86 0 -15 29 -10 83 15 141 64 210 91 372
144 212 69 599 157 845 191 110 16 320 31 420 31 138 0 383 -28 530 -60 74
-16 176 -36 225 -45 317 -57 679 -208 799 -334 34 -35 56 -40 56 -11 0 25 -93
103 -193 161 -42 24 -77 47 -77 50 0 4 44 36 98 72 94 63 163 113 364 263 53
40 107 75 120 79 24 8 73 44 150 110 124 107 154 133 196 172 31 28 49 38 53
31 4 -7 6 -15 4 -18 -2 -3 -6 -36 -10 -73 -8 -83 6 -111 36 -76 11 12 19 25
19 29 0 4 9 74 21 156 60 427 79 601 83 733 1 62 2 65 48 106 25 23 68 49 95
59 90 33 92 35 30 35 -53 1 -63 -3 -113 -41 -30 -23 -61 -53 -69 -68 -18 -34
-42 -174 -55 -320 -15 -167 -30 -287 -45 -354 -13 -55 -19 -63 -107 -145 -153
-144 -248 -224 -382 -321 -34 -25 -131 -97 -216 -160 -85 -64 -173 -128 -195
-143 -22 -15 -65 -45 -95 -67 -30 -21 -65 -39 -76 -39 -12 -1 -73 17 -135 40
-137 49 -177 61 -334 95 -66 14 -131 33 -145 42 -17 12 -49 17 -105 18 -44 1
-134 12 -200 25 -110 22 -146 24 -415 24 -306 -1 -306 -1 -600 -56 -25 -4 -76
-13 -115 -19 -38 -6 -122 -24 -185 -41 -63 -17 -158 -42 -210 -55 -52 -13
-140 -39 -195 -59 l-100 -35 -105 108 c-108 111 -294 329 -415 487 -38 50 -81
106 -96 125 l-28 35 11 300 c13 344 9 381 -50 470 -55 84 -141 116 -252 95
-101 -19 -151 -69 -207 -206 -15 -36 -34 -69 -41 -72 -13 -4 -143 123 -163
160 -5 9 -9 53 -9 97 l0 81 -35 0 -35 0 0 -49z m6767 -617 c18 -82 33 -159 33
-171 0 -25 -44 -71 -77 -79 -13 -4 -32 2 -51 16 -17 12 -51 25 -76 27 -30 4
-46 10 -46 20 0 7 24 60 53 116 28 56 64 131 79 165 16 38 32 62 39 60 7 -2
27 -71 46 -154z m-541 -268 c76 -37 99 -66 124 -158 25 -93 21 -108 -38 -148
-20 -14 -123 -89 -229 -167 -105 -79 -195 -143 -199 -143 -4 0 -31 -18 -60
-40 -29 -22 -56 -36 -59 -31 -3 6 -3 36 0 68 3 32 10 141 15 241 13 271 18
295 69 341 53 48 98 61 217 61 96 0 117 -3 160 -24z m398 4 c14 -5 26 -13 26
-18 0 -16 -90 -100 -90 -84 0 4 -4 2 -8 -3 -12 -18 -115 -96 -119 -91 -4 4 19
55 71 151 9 17 16 36 16 43 0 15 67 16 104 2z m-6454 -248 c57 -25 108 -71
138 -120 27 -47 27 -47 24 -217 -1 -93 -8 -210 -15 -260 l-12 -90 -35 36 c-19
19 -50 51 -67 70 -18 18 -49 47 -69 63 -30 25 -142 155 -274 318 -17 20 -30
45 -30 56 0 23 69 113 105 136 54 35 166 39 235 8z m4030 -6259 c124 -30 230
-59 237 -65 39 -32 187 -338 171 -354 -3 -2 -81 -26 -174 -53 -241 -70 -247
-72 -262 -103 -14 -30 -12 -35 60 -169 14 -25 28 -57 31 -69 6 -23 8 -23 104
-16 54 3 166 10 248 16 202 12 210 15 250 104 17 39 49 123 70 186 20 63 44
128 52 143 19 37 87 79 181 113 43 15 91 33 107 40 62 27 181 77 220 91 22 8
44 19 49 24 6 5 19 9 29 9 24 0 19 -14 -35 -94 -23 -33 -55 -81 -72 -106 -26
-40 -50 -70 -146 -184 -53 -64 -201 -213 -242 -244 -24 -18 -67 -51 -97 -75
-106 -83 -137 -104 -231 -159 -52 -30 -149 -82 -215 -116 -66 -33 -142 -72
-170 -86 -146 -74 -200 -97 -305 -131 -63 -20 -140 -46 -170 -56 -114 -41
-330 -93 -480 -114 -52 -8 -122 -18 -155 -24 -33 -5 -137 -17 -231 -27 -186
-19 -178 -19 -689 32 -564 56 -856 121 -1224 274 -178 74 -368 186 -566 335
-101 76 -375 319 -375 334 0 3 -21 29 -45 56 -25 28 -45 56 -45 63 0 7 26 24
58 38 31 14 80 36 109 50 28 13 61 24 73 24 26 0 228 -106 325 -171 66 -43
156 -89 177 -89 11 0 92 75 391 365 127 122 240 223 255 228 24 7 315 -8 368
-18 12 -3 47 -39 80 -82 60 -80 174 -297 174 -330 0 -10 -18 -43 -40 -73 -92
-128 -140 -203 -146 -227 -13 -52 71 -108 413 -278 117 -58 220 -105 228 -105
27 0 299 121 375 166 14 8 41 22 60 31 167 73 350 174 350 192 0 15 -46 50
-119 87 -40 22 -76 45 -78 52 -6 15 95 248 141 324 36 61 66 78 336 191 85 36
173 73 195 82 98 42 88 42 395 -32z"/>
<path d="M7226 10486 c3 -8 13 -12 25 -9 27 7 24 23 -6 23 -17 0 -23 -4 -19
-14z"/>
<path d="M9647 10470 c30 -31 62 -119 104 -290 26 -108 68 -231 85 -249 27
-29 27 18 0 92 -14 40 -26 82 -26 94 0 41 309 277 411 314 33 12 62 26 65 30
8 14 -54 10 -91 -6 -57 -23 -224 -139 -310 -214 -83 -73 -105 -84 -105 -52 0
11 -16 75 -36 143 -37 130 -61 168 -102 168 l-24 0 29 -30z"/>
<path d="M13825 10483 c4 -10 44 -126 89 -258 l81 -240 3 123 c2 115 1 129
-28 215 -64 189 -57 177 -107 177 -39 0 -44 -2 -38 -17z"/>
<path d="M13130 9155 c-10 -13 -9 -15 9 -15 11 0 21 4 21 9 0 18 -18 21 -30 6z"/>
<path d="M6885 8929 c-89 -8 -113 -15 -200 -54 -150 -67 -200 -149 -220 -360
-11 -116 -34 -264 -60 -375 -13 -58 -31 -139 -40 -180 -59 -268 -257 -832
-373 -1065 -21 -44 -54 -111 -73 -150 -18 -38 -44 -87 -56 -107 -26 -43 -29
-58 -10 -58 16 0 55 66 147 250 121 243 209 468 299 770 18 58 43 139 56 180
13 41 35 125 49 185 64 283 77 353 100 566 9 82 20 130 37 163 41 83 129 146
255 181 80 23 394 33 473 15 64 -14 139 -49 162 -76 41 -47 82 -217 119 -489
17 -126 47 -304 91 -535 15 -81 90 -337 151 -515 57 -168 207 -500 251 -556 6
-8 20 -18 30 -22 28 -10 21 29 -17 92 -154 259 -326 752 -396 1136 -17 94 -39
217 -50 275 -10 58 -22 134 -25 170 -15 156 -60 362 -94 429 -53 102 -166 142
-396 139 -71 0 -166 -4 -210 -9z"/>
<path d="M13200 8921 c0 -12 6 -21 15 -21 8 0 15 4 15 9 0 5 -7 14 -15 21 -13
10 -15 9 -15 -9z"/>
<path d="M1367 8573 c-4 -3 -7 -11 -7 -17 0 -6 5 -5 12 2 6 6 9 14 7 17 -3 3
-9 2 -12 -2z"/>
<path d="M13360 8400 c0 -13 -7 -20 -19 -20 -10 0 -21 -9 -24 -20 -5 -18 0
-20 49 -20 l54 0 -20 40 c-22 43 -40 52 -40 20z"/>
<path d="M13360 8281 c0 -23 9 -56 21 -76 12 -20 19 -38 16 -42 -4 -3 1 -19 9
-35 9 -17 18 -27 21 -24 3 3 14 1 24 -5 24 -12 27 -79 4 -79 -8 0 -15 -9 -15
-20 0 -13 5 -18 15 -14 8 4 15 12 15 20 0 8 9 14 20 14 16 0 20 7 20 38 0 21
-5 43 -11 49 -6 6 -12 24 -13 40 -5 56 -19 105 -32 110 -8 3 -14 19 -15 37 0
26 -2 28 -9 11 -7 -17 -9 -17 -9 -2 -1 12 -9 17 -31 17 -28 0 -30 -2 -30 -39z"/>
<path d="M1317 8271 c-10 -47 -9 -91 2 -91 13 0 21 65 12 97 l-7 28 -7 -34z"/>
<path d="M1301 8039 c-6 -18 -7 -38 -2 -47 6 -11 11 -4 16 27 9 52 1 63 -14
20z"/>
<path d="M13505 7972 c-34 -24 -45 -93 -20 -118 12 -12 15 -12 15 -2 0 7 6 3
13 -8 6 -12 18 -31 25 -43 11 -18 10 -21 -3 -21 -8 0 -15 -4 -15 -10 0 -5 16
-10 35 -10 19 0 35 5 35 11 0 5 -4 7 -10 4 -15 -9 -12 8 5 31 18 24 19 54 1
54 -8 0 -17 15 -21 36 -4 23 -13 38 -25 41 -10 3 -20 13 -22 24 -2 10 -7 15
-13 11z"/>
<path d="M13563 7723 c-22 -8 -14 -23 13 -23 15 0 24 5 22 12 -5 14 -18 18
-35 11z"/>
<path d="M6138 5454 c-4 -3 0 -21 8 -39 28 -68 5 -159 -51 -203 -35 -28 -65
-28 -99 -1 -21 16 -26 29 -26 62 0 51 28 115 66 152 20 19 23 26 10 21 -75
-26 -195 -200 -216 -315 -14 -73 -13 -247 1 -274 16 -30 28 -37 69 -37 75 0
138 71 217 245 46 101 89 278 79 328 -9 44 -42 78 -58 61z"/>
<path d="M7763 5395 c-38 -16 -48 -34 -57 -101 -6 -53 7 -183 26 -244 17 -56
78 -173 105 -202 42 -45 77 -54 123 -33 32 14 45 29 66 74 24 49 26 63 21 126
-11 119 -85 301 -150 366 -31 32 -57 38 -57 14 0 -8 4 -15 9 -15 4 0 23 -31
40 -70 30 -64 31 -73 21 -106 -17 -50 -51 -64 -97 -39 -81 44 -101 197 -28
225 14 5 25 12 25 15 0 8 -12 5 -47 -10z"/>
<path d="M6348 4738 c-48 -20 -60 -79 -32 -162 24 -69 158 -199 261 -252 147
-76 196 -88 383 -88 190 -1 240 10 355 77 100 57 142 93 192 160 54 74 57 115
14 174 l-29 40 -174 7 c-583 23 -850 37 -923 51 -11 2 -32 -2 -47 -7z m777
-163 c137 -20 207 -44 304 -103 2 -1 -2 -13 -9 -27 -17 -32 -147 -108 -230
-136 -95 -31 -272 -37 -387 -14 -112 23 -253 89 -321 150 -29 26 -52 50 -52
54 0 14 129 58 215 73 155 26 314 28 480 3z"/>
<path d="M6275 3434 c-33 -36 -132 -202 -141 -238 -8 -34 14 -68 69 -103 23
-15 71 -50 106 -76 93 -70 98 -71 178 -36 112 51 193 118 193 159 0 48 -84
255 -113 278 -7 6 -59 15 -116 21 -56 6 -114 14 -127 17 -17 4 -30 -1 -49 -22z
m263 -43 c31 -17 112 -191 112 -242 0 -29 -183 -149 -229 -149 -31 0 -52 12
-158 92 -65 48 -93 75 -93 89 0 30 107 217 128 223 28 8 219 -2 240 -13z"/>
<path d="M9065 1400 l-30 -8 33 -1 c17 0 32 4 32 9 0 6 -1 9 -2 9 -2 -1 -16
-5 -33 -9z"/>
<path d="M8998 1383 c7 -3 16 -2 19 1 4 3 -2 6 -13 5 -11 0 -14 -3 -6 -6z"/>
<path d="M12308 3 c7 -3 16 -2 19 1 4 3 -2 6 -13 5 -11 0 -14 -3 -6 -6z"/>
</g>
</svg>
